<svg width="20" height="19" viewBox="0 0 20 19" fill="none" xmlns="http://www.w3.org/2000/svg">
<path d="M0 18.5901V3.82996C0 3.00995 0.287003 2.31294 0.861009 1.73894C1.43501 1.16493 2.13202 0.87793 2.95203 0.87793H6.88807C7.70808 0.87793 8.40508 1.16493 8.97909 1.73894C9.55309 2.31294 9.8401 3.00995 9.8401 3.82996V18.5901H0ZM6.88807 12.686H7.87208V7.766H6.88807V12.686ZM1.96802 16.6221H7.87208V14.6541H6.88807C6.34686 14.6541 5.88339 14.4612 5.49766 14.0755C5.11193 13.6897 4.91939 13.2266 4.92005 12.686V7.766C4.92005 7.22479 5.11292 6.76132 5.49865 6.37559C5.88438 5.98986 6.34752 5.79732 6.88807 5.79798H7.87208V3.82996C7.87208 3.55116 7.77761 3.31729 7.58868 3.12836C7.39975 2.93943 7.16622 2.84529 6.88807 2.84595H2.95203C2.67323 2.84595 2.43936 2.94041 2.25043 3.12934C2.0615 3.31827 1.96736 3.55181 1.96802 3.82996V16.6221ZM13.9729 11.2838C13.5465 11.2838 13.1283 11.2264 12.7183 11.1116C12.3083 10.9968 11.9065 10.8492 11.5129 10.6688L12.1279 8.79921C12.4559 8.94681 12.78 9.06981 13.1001 9.16821C13.4203 9.26661 13.7194 9.31581 13.9975 9.31581C14.1943 9.31581 14.3911 9.28301 14.5879 9.21741C14.7847 9.15181 14.9897 9.05341 15.203 8.92221C15.5966 8.64341 15.9902 8.4548 16.3838 8.3564C16.7774 8.258 17.1546 8.2088 17.5154 8.2088C17.9254 8.2088 18.3478 8.26227 18.7828 8.3692C19.2177 8.47612 19.6235 8.61946 20 8.79921L19.385 10.6688C19.0078 10.5376 18.6595 10.4228 18.34 10.3244C18.0205 10.226 17.7456 10.1768 17.5154 10.1768C17.3186 10.1768 17.1014 10.2139 16.864 10.288C16.6265 10.3621 16.3762 10.4891 16.1132 10.6688C15.7688 10.8984 15.4201 11.0585 15.0672 11.149C14.7142 11.2396 14.3495 11.2845 13.9729 11.2838ZM13.9975 7.4462C13.5711 7.4462 13.1447 7.38879 12.7183 7.27399C12.2919 7.15919 11.8901 7.01159 11.5129 6.83119L12.1279 4.96157C12.5543 5.14197 12.9151 5.27317 13.2103 5.35517C13.5055 5.43717 13.7679 5.47818 13.9975 5.47818C14.1943 5.47818 14.3911 5.44931 14.5879 5.39158C14.7847 5.33385 14.9897 5.23152 15.203 5.08457C15.613 4.80577 16.0108 4.61717 16.3966 4.51877C16.7823 4.42036 17.1552 4.37116 17.5154 4.37116C17.9254 4.37116 18.3354 4.4243 18.7454 4.53057C19.1554 4.63685 19.5736 4.78051 20 4.96157L19.385 6.83119C18.9586 6.68359 18.5978 6.56452 18.3026 6.47399C18.0074 6.38346 17.745 6.33853 17.5154 6.33918C17.3022 6.33918 17.0847 6.37198 16.863 6.43758C16.6412 6.50318 16.3913 6.63439 16.1132 6.83119C15.818 7.04439 15.486 7.20019 15.1173 7.29859C14.7487 7.39699 14.3754 7.4462 13.9975 7.4462ZM13.9975 15.1215C13.5711 15.1215 13.1487 15.0641 12.7301 14.9493C12.3116 14.8345 11.9059 14.6869 11.5129 14.5065L12.1279 12.6368C12.4887 12.8008 12.8249 12.9281 13.1365 13.0186C13.4481 13.1092 13.7351 13.1541 13.9975 13.1535C14.1943 13.1535 14.3911 13.1246 14.5879 13.0669C14.7847 13.0091 14.9897 12.9068 15.203 12.7598C15.5802 12.4974 15.982 12.3128 16.4084 12.2058C16.8348 12.0989 17.212 12.0458 17.54 12.0464C17.95 12.0464 18.3682 12.1038 18.7946 12.2186C19.221 12.3334 19.6228 12.4728 20 12.6368L19.385 14.5065C18.9586 14.3589 18.5938 14.2398 18.2908 14.1493C17.9877 14.0587 17.7292 14.0138 17.5154 14.0145C17.2858 14.0145 17.0519 14.0515 16.8138 14.1257C16.5756 14.1998 16.3421 14.3267 16.1132 14.5065C15.8344 14.7033 15.5103 14.8551 15.141 14.9621C14.7716 15.069 14.3905 15.1221 13.9975 15.1215Z" fill="#909090"/>
</svg>
