<svg width="50" height="50" viewBox="0 0 50 50" fill="none" xmlns="http://www.w3.org/2000/svg">
<path d="M9.58124 24.3721H40.4331V26.314H9.58124V24.3721Z" fill="white"/>
<mask id="mask0_1_5888" style="mask-type:luminance" maskUnits="userSpaceOnUse" x="5" y="14" width="40" height="13">
<path d="M5.53595 14.3435H44.4667V26.3333H5.53595V14.3435Z" fill="white"/>
</mask>
<g mask="url(#mask0_1_5888)">
<path d="M42.4474 14.3435H7.57475C6.47032 14.3435 5.56824 15.2445 5.56824 16.3477V22.7951C5.56824 24.5586 6.88256 26.0266 8.57787 26.2675V23.8672C8.57787 23.5875 8.80339 23.3623 9.0836 23.3623H40.9386C41.2185 23.3623 41.4443 23.5875 41.4443 23.8672V26.2675C43.1474 26.0266 44.4539 24.5586 44.4539 22.7951V16.3477C44.4539 15.2445 43.5518 14.3435 42.4474 14.3435ZM41.9419 17.3498H39.5544C39.2742 17.3498 39.0487 17.1245 39.0487 16.8448C39.0487 16.5651 39.2742 16.3399 39.5544 16.3399H41.9419C42.2219 16.3399 42.4474 16.5651 42.4474 16.8448C42.4474 17.1245 42.2219 17.3498 41.9419 17.3498Z" fill="#FFA625"/>
</g>
<mask id="mask1_1_5888" style="mask-type:luminance" maskUnits="userSpaceOnUse" x="9" y="28" width="4" height="8">
<path d="M9.59998 28.2666H12.3333V35.6434H9.59998V28.2666Z" fill="white"/>
</mask>
<g mask="url(#mask1_1_5888)">
<path d="M11.6343 28.3182C11.3622 28.357 11.1677 28.6132 11.2067 28.8851C11.5099 30.9981 10.9888 33.1111 9.74449 34.8434C9.58121 35.0687 9.63564 35.3794 9.86116 35.5424C9.94683 35.6046 10.0557 35.6356 10.1567 35.6356C10.3122 35.6356 10.4677 35.5658 10.5612 35.426C11.9609 33.4838 12.5442 31.107 12.202 28.7377C12.1632 28.4736 11.9065 28.2794 11.6343 28.3182Z" fill="#FFA625"/>
</g>
<mask id="mask2_1_5888" style="mask-type:luminance" maskUnits="userSpaceOnUse" x="13" y="28" width="4" height="8">
<path d="M13.4 28.2666H16.1334V35.6434H13.4V28.2666Z" fill="white"/>
</mask>
<g mask="url(#mask2_1_5888)">
<path d="M15.4453 28.3182C15.1729 28.357 14.9787 28.6132 15.0175 28.8851C15.3208 30.9981 14.7998 33.1111 13.5555 34.8434C13.3919 35.0687 13.4464 35.3794 13.6719 35.5424C13.7576 35.6046 13.8664 35.6356 13.9675 35.6356C14.1232 35.6356 14.2787 35.5658 14.3719 35.426C15.7719 33.4838 16.3552 31.107 16.013 28.7377C15.974 28.4736 15.7253 28.2794 15.4453 28.3182Z" fill="#FFA625"/>
</g>
<mask id="mask3_1_5888" style="mask-type:luminance" maskUnits="userSpaceOnUse" x="17" y="28" width="3" height="8">
<path d="M17.2667 28.2666H19.9333V35.6434H17.2667V28.2666Z" fill="white"/>
</mask>
<g mask="url(#mask3_1_5888)">
<path d="M19.2638 28.3182C18.9917 28.357 18.7971 28.6132 18.8359 28.8851C19.1393 30.9981 18.6182 33.1111 17.3739 34.8434C17.2107 35.0687 17.2651 35.3794 17.4906 35.5424C17.576 35.6046 17.6849 35.6356 17.7862 35.6356C17.9417 35.6356 18.0971 35.5658 18.1906 35.426C19.5904 33.4838 20.1737 31.107 19.8315 28.7377C19.7927 28.4736 19.5359 28.2794 19.2638 28.3182Z" fill="#FFA625"/>
</g>
<mask id="mask4_1_5888" style="mask-type:luminance" maskUnits="userSpaceOnUse" x="30" y="28" width="3" height="8">
<path d="M30.0667 28.2666H32.8V35.6434H30.0667V28.2666Z" fill="white"/>
</mask>
<g mask="url(#mask4_1_5888)">
<path d="M31.1862 28.885C31.225 28.6131 31.0383 28.3569 30.7583 28.3181C30.4862 28.2793 30.2294 28.4657 30.1906 28.7454C29.8484 31.1147 30.4318 33.4915 31.8315 35.4337C31.9328 35.5657 32.0805 35.6433 32.2359 35.6433C32.3372 35.6433 32.4383 35.6124 32.5315 35.5501C32.757 35.3871 32.8036 35.0762 32.6482 34.8509C31.4039 33.1186 30.8828 30.998 31.1862 28.885Z" fill="#FFA625"/>
</g>
<mask id="mask5_1_5888" style="mask-type:luminance" maskUnits="userSpaceOnUse" x="26" y="28" width="3" height="8">
<path d="M26.3333 28.2666H28.9333V35.6434H26.3333V28.2666Z" fill="white"/>
</mask>
<g mask="url(#mask5_1_5888)">
<path d="M27.3753 28.8153C27.3753 28.5356 27.1497 28.3103 26.8698 28.3103C26.5898 28.3103 26.3643 28.5356 26.3643 28.8153C26.3643 30.9593 26.5586 33.4218 28.013 35.4337C28.1141 35.5658 28.262 35.6434 28.4174 35.6434C28.5185 35.6434 28.6195 35.6124 28.713 35.5501C28.9385 35.3871 28.9852 35.0762 28.8297 34.8509C27.5464 33.0645 27.3753 30.7962 27.3753 28.8153Z" fill="#FFA625"/>
</g>
<mask id="mask6_1_5888" style="mask-type:luminance" maskUnits="userSpaceOnUse" x="21" y="28" width="3" height="8">
<path d="M21.0667 28.2666H23.6667V35.6434H21.0667V28.2666Z" fill="white"/>
</mask>
<g mask="url(#mask6_1_5888)">
<path d="M23.1445 28.3181C22.8646 28.3181 22.639 28.5434 22.639 28.8231C22.639 30.8038 22.4679 33.072 21.1768 34.8509C21.0135 35.0762 21.0679 35.3871 21.2935 35.5501C21.3791 35.6124 21.488 35.6434 21.589 35.6434C21.7448 35.6434 21.9002 35.5736 21.9935 35.4337C23.4479 33.4218 23.6422 30.9593 23.6422 28.8153C23.65 28.5434 23.4245 28.3181 23.1445 28.3181Z" fill="#FFA625"/>
</g>
<mask id="mask7_1_5888" style="mask-type:luminance" maskUnits="userSpaceOnUse" x="33" y="28" width="4" height="8">
<path d="M33.8666 28.2666H36.6V35.6434H33.8666V28.2666Z" fill="white"/>
</mask>
<g mask="url(#mask7_1_5888)">
<path d="M34.9969 28.885C35.0357 28.6131 34.8492 28.3569 34.5693 28.3181C34.2969 28.2793 34.0403 28.4657 34.0013 28.7454C33.6591 31.1147 34.2424 33.4915 35.6424 35.4337C35.7435 35.5657 35.8911 35.6433 36.0469 35.6433C36.1479 35.6433 36.2489 35.6124 36.3424 35.5501C36.568 35.3871 36.6146 35.0762 36.4591 34.8509C35.2146 33.1186 34.6935 30.998 34.9969 28.885Z" fill="#FFA625"/>
</g>
<mask id="mask8_1_5888" style="mask-type:luminance" maskUnits="userSpaceOnUse" x="37" y="28" width="4" height="8">
<path d="M37.6667 28.2666H40.4V35.6434H37.6667V28.2666Z" fill="white"/>
</mask>
<g mask="url(#mask8_1_5888)">
<path d="M38.8154 28.885C38.8544 28.6131 38.6677 28.3569 38.3878 28.3181C38.1156 28.2793 37.8589 28.4657 37.8201 28.7454C37.4779 31.1147 38.0612 33.4915 39.461 35.4337C39.562 35.5657 39.7099 35.6433 39.8654 35.6433C39.9664 35.6433 40.0677 35.6124 40.161 35.5501C40.3865 35.3871 40.4331 35.0762 40.2776 34.8509C39.0334 33.1186 38.5123 30.998 38.8154 28.885Z" fill="#FFA625"/>
</g>
</svg>
