<svg width="22" height="13" viewBox="0 0 22 13" fill="none" xmlns="http://www.w3.org/2000/svg">
<path d="M2.26538 5.61621H19.5424V6.70369H2.26538V5.61621Z" fill="white"/>
<mask id="mask0_1_3499" style="mask-type:luminance" maskUnits="userSpaceOnUse" x="0" y="0" width="22" height="7">
<path d="M0 0H21.8012V6.71431H0V0Z" fill="white"/>
</mask>
<g mask="url(#mask0_1_3499)">
<path d="M20.6704 0H1.14171C0.523233 0 0.0180664 0.504583 0.0180664 1.12233V4.73288C0.0180664 5.72046 0.754087 6.54252 1.70346 6.67742V5.33327C1.70346 5.17665 1.82975 5.0505 1.98667 5.0505H19.8254C19.9822 5.0505 20.1086 5.17665 20.1086 5.33327V6.67742C21.0624 6.54252 21.794 5.72046 21.794 4.73288V1.12233C21.794 0.504583 21.2889 0 20.6704 0ZM20.3873 1.6835H19.0503C18.8934 1.6835 18.7671 1.55735 18.7671 1.40073C18.7671 1.2441 18.8934 1.11796 19.0503 1.11796H20.3873C20.5441 1.11796 20.6704 1.2441 20.6704 1.40073C20.6704 1.55735 20.5441 1.6835 20.3873 1.6835Z" fill="white"/>
</g>
<mask id="mask1_1_3499" style="mask-type:luminance" maskUnits="userSpaceOnUse" x="2" y="7" width="3" height="6">
<path d="M2.8999 7.96777H4.43057V12.0988H2.8999V7.96777Z" fill="white"/>
</mask>
<g mask="url(#mask1_1_3499)">
<path d="M4.03919 7.99666C3.8868 8.01839 3.77786 8.16189 3.79973 8.31414C3.96948 9.49744 3.67767 10.6807 2.98088 11.6508C2.88944 11.777 2.91992 11.9509 3.04621 12.0422C3.09419 12.0771 3.15515 12.0944 3.21173 12.0944C3.2988 12.0944 3.38586 12.0554 3.43821 11.977C4.22207 10.8894 4.54873 9.55839 4.35711 8.2316C4.33538 8.08373 4.19159 7.97494 4.03919 7.99666Z" fill="white"/>
</g>
<mask id="mask2_1_3499" style="mask-type:luminance" maskUnits="userSpaceOnUse" x="5" y="7" width="2" height="6">
<path d="M5.02795 7.96777H6.55862V12.0988H5.02795V7.96777Z" fill="white"/>
</mask>
<g mask="url(#mask2_1_3499)">
<path d="M6.17334 7.99666C6.0208 8.01839 5.912 8.16189 5.93373 8.31414C6.10363 9.49744 5.81182 10.6807 5.11503 11.6508C5.02344 11.777 5.05392 11.9509 5.18021 12.0422C5.22819 12.0771 5.28915 12.0944 5.34573 12.0944C5.43294 12.0944 5.52 12.0554 5.57221 11.977C6.35621 10.8894 6.68288 9.55839 6.49125 8.2316C6.46938 8.08373 6.33011 7.97494 6.17334 7.99666Z" fill="white"/>
</g>
<mask id="mask3_1_3499" style="mask-type:luminance" maskUnits="userSpaceOnUse" x="7" y="7" width="2" height="6">
<path d="M7.19324 7.96777H8.68657V12.0988H7.19324V7.96777Z" fill="white"/>
</mask>
<g mask="url(#mask3_1_3499)">
<path d="M8.31165 7.99666C8.15926 8.01839 8.05032 8.16189 8.07205 8.31414C8.24194 9.49744 7.95013 10.6807 7.25334 11.6508C7.1619 11.777 7.19238 11.9509 7.31867 12.0422C7.36651 12.0771 7.42746 12.0944 7.48419 12.0944C7.57126 12.0944 7.65832 12.0554 7.71067 11.977C8.49453 10.8894 8.82119 9.55839 8.62957 8.2316C8.60784 8.08373 8.46405 7.97494 8.31165 7.99666Z" fill="white"/>
</g>
<mask id="mask4_1_3499" style="mask-type:luminance" maskUnits="userSpaceOnUse" x="14" y="7" width="2" height="6">
<path d="M14.3612 7.96777H15.8919V12.0988H14.3612V7.96777Z" fill="white"/>
</mask>
<g mask="url(#mask4_1_3499)">
<path d="M14.9881 8.31423C15.0099 8.16198 14.9053 8.01848 14.7485 7.99675C14.5961 7.97502 14.4523 8.07944 14.4306 8.23607C14.239 9.56286 14.5656 10.8939 15.3495 11.9815C15.4062 12.0554 15.4889 12.0989 15.576 12.0989C15.6327 12.0989 15.6893 12.0815 15.7415 12.0467C15.8678 11.9554 15.8939 11.7813 15.8068 11.6551C15.11 10.685 14.8182 9.49752 14.9881 8.31423Z" fill="white"/>
</g>
<mask id="mask5_1_3499" style="mask-type:luminance" maskUnits="userSpaceOnUse" x="12" y="7" width="2" height="6">
<path d="M12.2706 7.96777H13.7266V12.0988H12.2706V7.96777Z" fill="white"/>
</mask>
<g mask="url(#mask5_1_3499)">
<path d="M12.8541 8.27496C12.8541 8.11833 12.7278 7.99219 12.571 7.99219C12.4143 7.99219 12.288 8.11833 12.288 8.27496C12.288 9.4756 12.3968 10.8546 13.2112 11.9813C13.2678 12.0552 13.3507 12.0987 13.4377 12.0987C13.4943 12.0987 13.5509 12.0814 13.6032 12.0465C13.7295 11.9552 13.7556 11.7811 13.6686 11.6549C12.9499 10.6545 12.8541 9.38431 12.8541 8.27496Z" fill="white"/>
</g>
<mask id="mask6_1_3499" style="mask-type:luminance" maskUnits="userSpaceOnUse" x="9" y="7" width="2" height="6">
<path d="M9.32129 7.96777H10.7773V12.0988H9.32129V7.96777Z" fill="white"/>
</mask>
<g mask="url(#mask6_1_3499)">
<path d="M10.4849 7.99658C10.3281 7.99658 10.2018 8.12273 10.2018 8.27935C10.2018 9.38856 10.106 10.6588 9.38298 11.655C9.29154 11.7811 9.32202 11.9552 9.44831 12.0465C9.49629 12.0814 9.55725 12.0987 9.61383 12.0987C9.70104 12.0987 9.7881 12.0596 9.84031 11.9813C10.6548 10.8546 10.7636 9.47562 10.7636 8.27498C10.768 8.12273 10.6417 7.99658 10.4849 7.99658Z" fill="white"/>
</g>
<mask id="mask7_1_3499" style="mask-type:luminance" maskUnits="userSpaceOnUse" x="16" y="7" width="3" height="6">
<path d="M16.4893 7.96777H18.0199V12.0988H16.4893V7.96777Z" fill="white"/>
</mask>
<g mask="url(#mask7_1_3499)">
<path d="M17.1222 8.31423C17.1439 8.16198 17.0395 8.01848 16.8827 7.99675C16.7302 7.97502 16.5865 8.07944 16.5646 8.23607C16.373 9.56286 16.6997 10.8939 17.4837 11.9815C17.5403 12.0554 17.6229 12.0989 17.7102 12.0989C17.7667 12.0989 17.8233 12.0815 17.8757 12.0467C18.002 11.9554 18.0281 11.7813 17.941 11.6551C17.2441 10.685 16.9523 9.49752 17.1222 8.31423Z" fill="white"/>
</g>
<mask id="mask8_1_3499" style="mask-type:luminance" maskUnits="userSpaceOnUse" x="18" y="7" width="3" height="6">
<path d="M18.6173 7.96777H20.148V12.0988H18.6173V7.96777Z" fill="white"/>
</mask>
<g mask="url(#mask8_1_3499)">
<path d="M19.2606 8.31423C19.2824 8.16198 19.1779 8.01848 19.0211 7.99675C18.8687 7.97502 18.7249 8.07944 18.7032 8.23607C18.5116 9.56286 18.8382 10.8939 19.6221 11.9815C19.6787 12.0554 19.7615 12.0989 19.8486 12.0989C19.9051 12.0989 19.9619 12.0815 20.0141 12.0467C20.1404 11.9554 20.1665 11.7813 20.0794 11.6551C19.3826 10.685 19.0908 9.49752 19.2606 8.31423Z" fill="white"/>
</g>
</svg>
