<svg width="25" height="24" viewBox="0 0 25 24" fill="none" xmlns="http://www.w3.org/2000/svg">
<path d="M24.515 6.74157C24.1494 6.74157 24.7464 6.76476 24.4987 6.51703C24.251 6.2693 24.5141 7.10628 24.515 6.74157C24.515 6.37599 24.251 6.76476 24.4987 6.51703C24.7464 6.2693 23.9357 5.45045 24.3004 5.45131C24.666 5.45131 24.1068 5.60141 24.3546 5.84914C24.6023 6.09688 24.5158 6.37685 24.515 6.74157C24.515 7.10714 25.1933 5.84871 24.9456 6.09644C24.6978 6.34417 24.8797 6.74243 24.515 6.74157ZM10.3221 23.515V18.87L6.96741 22.2247L5.16105 20.4183L10.3221 15.2573V13.1929H8.25767L3.09663 18.3539L1.29026 16.5476L4.64494 13.1929H0V10.6124H4.64494L1.29026 7.25767L3.09663 5.45131L8.25767 10.6124H10.3221V8.54793L5.16105 3.38689L6.96741 1.58052L10.3221 4.9352V0.290261H12.9026V4.9352L16.2573 1.58052L18.0637 3.38689L12.9026 8.54793V10.6124H23.2247V13.1929H18.5798L21.9344 16.5476L20.1281 18.3539L14.967 13.1929H12.9026V15.2573L18.0637 20.4183L16.2573 22.2247L12.9026 18.87V23.515H10.3221Z" fill="white"/>
</svg>
