<svg width="17" height="22" viewBox="0 0 17 22" fill="none" xmlns="http://www.w3.org/2000/svg">
<path d="M8.30943 19.9972H2.10032C1.37042 19.9972 0.770508 19.3972 0.770508 18.6673V3.32953C0.770508 2.59963 1.37042 1.99972 2.10032 1.99972H3.77008V0H9.76923V1.99972H11.439C12.1689 1.99972 12.7688 2.59963 12.7688 3.32953V9.99858C12.0689 9.99858 11.399 10.1286 10.7691 10.3485V3.99943H2.77022V17.9974H7.1196C7.37957 18.7473 7.76951 19.4172 8.30943 19.9972ZM12.7688 10.9984L15.0185 13.2481L12.7688 15.4978V13.998C10.9191 13.998 9.70923 15.9577 10.5291 17.6175L9.43927 18.7073C7.67952 16.0477 9.57925 12.4982 12.7688 12.4982V10.9984ZM12.7688 21.9969L10.5191 19.7472L12.7688 17.4975V18.9973C14.6185 18.9973 15.8284 17.0376 15.0085 15.3778L16.0983 14.288C17.8581 16.9476 15.9583 20.4971 12.7688 20.4971V21.9969Z" fill="#909090"/>
</svg>
