<svg width="23" height="24" viewBox="0 0 23 24" fill="none" xmlns="http://www.w3.org/2000/svg">
<path d="M6.86806 12C6.86806 13.1787 7.33631 14.3092 8.1698 15.1427C9.0033 15.9762 10.1338 16.4444 11.3125 16.4444C12.4912 16.4444 13.6217 15.9762 14.4552 15.1427C15.2887 14.3092 15.7569 13.1787 15.7569 12C15.7569 10.8213 15.2887 9.6908 14.4552 8.8573C13.6217 8.02381 12.4912 7.55556 11.3125 7.55556C10.1338 7.55556 9.0033 8.02381 8.1698 8.8573C7.33631 9.6908 6.86806 10.8213 6.86806 12ZM1.3125 12H2.42361H1.3125ZM11.3125 2V3.11111V2ZM20.2014 12H21.3125H20.2014ZM11.3125 20.8889V22V20.8889ZM4.20139 4.88889L4.97917 5.66667L4.20139 4.88889ZM18.4236 4.88889L17.6458 5.66667L18.4236 4.88889ZM17.6458 18.3333L18.4236 19.1111L17.6458 18.3333ZM4.97917 18.3333L4.20139 19.1111L4.97917 18.3333Z" fill="#909090"/>
<path d="M1.3125 12H2.42361M11.3125 2V3.11111M20.2014 12H21.3125M11.3125 20.8889V22M4.20139 4.88889L4.97917 5.66667M18.4236 4.88889L17.6458 5.66667M17.6458 18.3333L18.4236 19.1111M4.97917 18.3333L4.20139 19.1111M6.86806 12C6.86806 13.1787 7.33631 14.3092 8.1698 15.1427C9.0033 15.9762 10.1338 16.4444 11.3125 16.4444C12.4912 16.4444 13.6217 15.9762 14.4552 15.1427C15.2887 14.3092 15.7569 13.1787 15.7569 12C15.7569 10.8213 15.2887 9.6908 14.4552 8.8573C13.6217 8.02381 12.4912 7.55556 11.3125 7.55556C10.1338 7.55556 9.0033 8.02381 8.1698 8.8573C7.33631 9.6908 6.86806 10.8213 6.86806 12Z" stroke="#909090" stroke-width="2.19847" stroke-linecap="round" stroke-linejoin="round"/>
</svg>
