<svg width="14" height="21" viewBox="0 0 14 21" fill="none" xmlns="http://www.w3.org/2000/svg">
<mask id="mask0_16_636" style="mask-type:luminance" maskUnits="userSpaceOnUse" x="0" y="-1" width="14" height="22">
<path d="M1.5 1.49921H12.5V18.5122H1.5V1.49921Z" fill="white" stroke="white" stroke-width="3"/>
</mask>
<g mask="url(#mask0_16_636)">
<path d="M2.00143 18.5026H1.99991C1.71443 18.5026 1.5 18.2798 1.5 18.0114V16.4745C2.01589 17.2918 2.70876 17.9864 3.52471 18.5041L2.00143 18.5026ZM1.5 9.54194V2.00133C1.5 1.72298 1.72436 1.5 1.99991 1.5H4.55181C3.90259 2.13566 3.49993 3.02212 3.49993 4.00251C3.49993 5.16794 4.06887 6.20065 4.94458 6.83714C3.508 7.3162 2.29425 8.28354 1.5 9.54194ZM12.5 9.54218C11.7058 8.28366 10.492 7.31622 9.05531 6.83713C9.931 6.20063 10.4999 5.1679 10.4999 4.00251C10.4999 3.02215 10.0973 2.13567 9.44805 1.5H11.9999C12.2756 1.5 12.5 1.72314 12.5 2.00133V9.54218ZM10.4641 18.5111C11.2849 17.9926 11.9818 17.2954 12.5 16.4742V18.0114C12.5 18.2893 12.2761 18.5123 12.0008 18.5127C12.0005 18.5127 12.0002 18.5127 11.9999 18.5127L10.4641 18.5111ZM5.49998 13.0083C5.49998 12.1797 6.17426 11.5064 7 11.5064C7.82553 11.5064 8.49986 12.1797 8.49986 13.0083C8.49986 13.8369 7.82553 14.5102 7 14.5102C6.17426 14.5102 5.49998 13.8368 5.49998 13.0083Z" fill="#F77695" stroke="white" stroke-width="3"/>
</g>
</svg>
