<svg width="25" height="24" viewBox="0 0 25 24" fill="none" xmlns="http://www.w3.org/2000/svg">
<path d="M24.515 6.45128C24.1494 6.45128 24.7464 6.47448 24.4987 6.22675C24.251 5.97902 24.5141 6.816 24.515 6.45128C24.515 6.08571 24.251 6.47448 24.4987 6.22675C24.7464 5.97902 23.9357 5.16016 24.3004 5.16102C24.666 5.16102 24.1068 5.31113 24.3546 5.55886C24.6023 5.80659 24.5158 6.08657 24.515 6.45128C24.515 6.81686 25.1933 5.55842 24.9456 5.80615C24.6978 6.05388 24.8797 6.45214 24.515 6.45128ZM10.3221 23.2247V18.5797L6.96741 21.9344L5.16105 20.1281L10.3221 14.967V12.9026H8.25767L3.09663 18.0636L1.29026 16.2573L4.64494 12.9026H0V10.3221H4.64494L1.29026 6.96739L3.09663 5.16102L8.25767 10.3221H10.3221V8.25765L5.16105 3.09661L6.96741 1.29024L10.3221 4.64492V-2.19345e-05H12.9026V4.64492L16.2573 1.29024L18.0637 3.09661L12.9026 8.25765V10.3221H23.2247V12.9026H18.5798L21.9344 16.2573L20.1281 18.0636L14.967 12.9026H12.9026V14.967L18.0637 20.1281L16.2573 21.9344L12.9026 18.5797V23.2247H10.3221Z" fill="white"/>
</svg>
