<svg width="23" height="23" viewBox="0 0 23 23" fill="none" xmlns="http://www.w3.org/2000/svg">
<g clip-path="url(#clip0_16_900)">
<path d="M21.85 0L15.8125 6.0375V4.3125C15.8125 1.86875 13.9438 0 11.5 0C9.05625 0 7.1875 1.86875 7.1875 4.3125V10.0625C7.1875 11.3562 7.7625 12.5062 8.625 13.225L7.475 14.375C6.46875 13.5125 5.75 12.2188 5.75 10.7812V7.1875C4.8875 7.1875 4.3125 7.7625 4.3125 8.625V10.7812C4.3125 12.65 5.175 14.2312 6.46875 15.3812L0 21.9937V23H1.00625L23 0.8625V0H21.85ZM17.9688 7.33125L17.25 8.05V10.7812C17.25 13.5125 14.6625 15.8125 11.7875 15.8125H11.2125C10.7812 15.8125 10.35 15.6687 9.91875 15.6687L8.625 16.675C9.05625 16.8188 9.4875 16.9625 10.0625 17.1062V20.125C5.75 20.125 6.46875 23 6.46875 23H16.5312C16.5312 23 17.25 20.125 12.9375 20.125V17.1062C16.1 16.5312 18.6875 13.9438 18.6875 10.7812V8.625C18.6875 8.05 18.4 7.61875 17.9688 7.33125Z" fill="#909090"/>
<path d="M15.8125 10.0625V9.48755L11.0687 14.375H11.5C13.9437 14.375 15.8125 12.3625 15.8125 10.0625Z" fill="#909090"/>
</g>
<defs>
<clipPath id="clip0_16_900">
<rect width="23" height="23" fill="white"/>
</clipPath>
</defs>
</svg>
