<svg width="23" height="23" viewBox="0 0 23 23" fill="none" xmlns="http://www.w3.org/2000/svg">
<path d="M6.89508 11.5C6.89508 12.7213 7.38024 13.8926 8.24383 14.7562C9.10742 15.6198 10.2787 16.1049 11.5 16.1049C12.7213 16.1049 13.8926 15.6198 14.7562 14.7562C15.6198 13.8926 16.1049 12.7213 16.1049 11.5C16.1049 10.2787 15.6198 9.10742 14.7562 8.24383C13.8926 7.38024 12.7213 6.89508 11.5 6.89508C10.2787 6.89508 9.10742 7.38024 8.24383 8.24383C7.38024 9.10742 6.89508 10.2787 6.89508 11.5ZM1.13893 11.5H2.29016H1.13893ZM11.5 1.13893V2.29016V1.13893ZM20.7098 11.5H21.8611H20.7098ZM11.5 20.7098V21.8611V20.7098ZM4.13213 4.13213L4.93799 4.93799L4.13213 4.13213ZM18.8679 4.13213L18.062 4.93799L18.8679 4.13213ZM18.062 18.062L18.8679 18.8679L18.062 18.062ZM4.93799 18.062L4.13213 18.8679L4.93799 18.062Z" fill="#909090"/>
<path d="M1.13893 11.5H2.29016M11.5 1.13893V2.29016M20.7098 11.5H21.8611M11.5 20.7098V21.8611M4.13213 4.13213L4.93799 4.93799M18.8679 4.13213L18.062 4.93799M18.062 18.062L18.8679 18.8679M4.93799 18.062L4.13213 18.8679M6.89508 11.5C6.89508 12.7213 7.38024 13.8926 8.24383 14.7562C9.10742 15.6198 10.2787 16.1049 11.5 16.1049C12.7213 16.1049 13.8926 15.6198 14.7562 14.7562C15.6198 13.8926 16.1049 12.7213 16.1049 11.5C16.1049 10.2787 15.6198 9.10742 14.7562 8.24383C13.8926 7.38024 12.7213 6.89508 11.5 6.89508C10.2787 6.89508 9.10742 7.38024 8.24383 8.24383C7.38024 9.10742 6.89508 10.2787 6.89508 11.5Z" stroke="#909090" stroke-width="2.19847" stroke-linecap="round" stroke-linejoin="round"/>
</svg>
