<svg width="14" height="12" viewBox="0 0 14 12" fill="none" xmlns="http://www.w3.org/2000/svg">
<path d="M0.427907 4.57902L5.93706 0.174619C6.07335 0.0638075 6.22941 0.00393692 6.38893 0.00126293C6.54846 -0.00141105 6.70559 0.0532097 6.84392 0.159418C6.99401 0.276208 7.1183 0.443994 7.20417 0.645737C7.29003 0.84748 7.33441 1.07599 7.33279 1.30807V4.3892L12.6042 0.17345C12.7405 0.0626382 12.8966 0.00276766 13.0561 9.36703e-05C13.2156 -0.00258032 13.3728 0.0520404 13.5111 0.158249C13.6612 0.275039 13.7855 0.442825 13.8713 0.644568C13.9572 0.846311 14.0016 1.07482 14 1.3069V9.92081C14.0016 10.153 13.9573 10.3815 13.8714 10.5834C13.7855 10.7852 13.6612 10.953 13.5111 11.0699C13.3728 11.1761 13.2156 11.2307 13.0561 11.228C12.8966 11.2253 12.7405 11.1655 12.6042 11.0547L7.33279 6.83695V9.91926C7.33467 10.1517 7.29041 10.3806 7.20453 10.5827C7.11866 10.7848 6.99423 10.9529 6.84392 11.0699C6.70559 11.1761 6.54846 11.2307 6.38893 11.228C6.22941 11.2253 6.07335 11.1655 5.93706 11.0547L0.427907 6.65025C0.296939 6.54063 0.188964 6.38833 0.114116 6.20766C0.0392675 6.02699 0 5.82387 0 5.61736C0 5.41086 0.0392675 5.20774 0.114116 5.02707C0.188964 4.8464 0.296939 4.6941 0.427907 4.58448V4.57902Z" fill="black"/>
</svg>
