<svg width="20" height="18" viewBox="0 0 20 18" fill="none" xmlns="http://www.w3.org/2000/svg">
<path d="M0 17.7122V2.95203C0 2.13202 0.287003 1.43501 0.861009 0.861009C1.43501 0.287003 2.13202 0 2.95203 0H6.88807C7.70808 0 8.40508 0.287003 8.97909 0.861009C9.55309 1.43501 9.8401 2.13202 9.8401 2.95203V17.7122H0ZM6.88807 11.8081H7.87208V6.88807H6.88807V11.8081ZM1.96802 15.7442H7.87208V13.7761H6.88807C6.34686 13.7761 5.88339 13.5833 5.49766 13.1975C5.11193 12.8118 4.91939 12.3487 4.92005 11.8081V6.88807C4.92005 6.34686 5.11292 5.88339 5.49865 5.49766C5.88438 5.11193 6.34752 4.91939 6.88807 4.92005H7.87208V2.95203C7.87208 2.67323 7.77761 2.43936 7.58868 2.25043C7.39975 2.0615 7.16622 1.96736 6.88807 1.96802H2.95203C2.67323 1.96802 2.43936 2.06248 2.25043 2.25141C2.0615 2.44034 1.96736 2.67388 1.96802 2.95203V15.7442ZM13.9729 10.4059C13.5465 10.4059 13.1283 10.3485 12.7183 10.2337C12.3083 10.1189 11.9065 9.9713 11.5129 9.7909L12.1279 7.92128C12.4559 8.06888 12.78 8.19188 13.1001 8.29028C13.4203 8.38868 13.7194 8.43788 13.9975 8.43788C14.1943 8.43788 14.3911 8.40508 14.5879 8.33948C14.7847 8.27388 14.9897 8.17548 15.203 8.04428C15.5966 7.76548 15.9902 7.57688 16.3838 7.47847C16.7774 7.38007 17.1546 7.33087 17.5154 7.33087C17.9254 7.33087 18.3478 7.38434 18.7828 7.49127C19.2177 7.5982 19.6235 7.74153 20 7.92128L19.385 9.7909C19.0078 9.6597 18.6595 9.5449 18.34 9.44649C18.0205 9.34809 17.7456 9.29889 17.5154 9.29889C17.3186 9.29889 17.1014 9.33596 16.864 9.41008C16.6265 9.48421 16.3762 9.61115 16.1132 9.7909C15.7688 10.0205 15.4201 10.1806 15.0672 10.2711C14.7142 10.3616 14.3495 10.4066 13.9729 10.4059ZM13.9975 6.56827C13.5711 6.56827 13.1447 6.51086 12.7183 6.39606C12.2919 6.28126 11.8901 6.13366 11.5129 5.95326L12.1279 4.08364C12.5543 4.26404 12.9151 4.39524 13.2103 4.47724C13.5055 4.55925 13.7679 4.60025 13.9975 4.60025C14.1943 4.60025 14.3911 4.57138 14.5879 4.51365C14.7847 4.45592 14.9897 4.35359 15.203 4.20664C15.613 3.92784 16.0108 3.73924 16.3966 3.64084C16.7823 3.54243 17.1552 3.49323 17.5154 3.49323C17.9254 3.49323 18.3354 3.54637 18.7454 3.65264C19.1554 3.75892 19.5736 3.90258 20 4.08364L19.385 5.95326C18.9586 5.80566 18.5978 5.68659 18.3026 5.59606C18.0074 5.50553 17.745 5.4606 17.5154 5.46125C17.3022 5.46125 17.0847 5.49405 16.863 5.55965C16.6412 5.62526 16.3913 5.75646 16.1132 5.95326C15.818 6.16646 15.486 6.32226 15.1173 6.42066C14.7487 6.51906 14.3754 6.56827 13.9975 6.56827ZM13.9975 14.2435C13.5711 14.2435 13.1487 14.1861 12.7301 14.0713C12.3116 13.9565 11.9059 13.8089 11.5129 13.6285L12.1279 11.7589C12.4887 11.9229 12.8249 12.0502 13.1365 12.1407C13.4481 12.2312 13.7351 12.2762 13.9975 12.2755C14.1943 12.2755 14.3911 12.2467 14.5879 12.1889C14.7847 12.1312 14.9897 12.0289 15.203 11.8819C15.5802 11.6195 15.982 11.4348 16.4084 11.3279C16.8348 11.221 17.212 11.1679 17.54 11.1685C17.95 11.1685 18.3682 11.2259 18.7946 11.3407C19.221 11.4555 19.6228 11.5949 20 11.7589L19.385 13.6285C18.9586 13.4809 18.5938 13.3619 18.2908 13.2713C17.9877 13.1808 17.7292 13.1359 17.5154 13.1365C17.2858 13.1365 17.0519 13.1736 16.8138 13.2477C16.5756 13.3219 16.3421 13.4488 16.1132 13.6285C15.8344 13.8253 15.5103 13.9772 15.141 14.0841C14.7716 14.1911 14.3905 14.2442 13.9975 14.2435Z" fill="#909090"/>
</svg>
