<svg width="24" height="20" viewBox="0 0 24 20" fill="none" xmlns="http://www.w3.org/2000/svg">
<path d="M6.35 12.7439L4.25 10.3299C5.23333 9.22576 6.38767 8.35109 7.713 7.70585C9.03833 7.06061 10.4673 6.73761 12 6.73686C13.5333 6.73686 14.9627 7.06435 16.288 7.71932C17.6133 8.37429 18.7673 9.26318 19.75 10.386L17.65 12.7439C16.9167 11.9205 16.0667 11.2749 15.1 10.807C14.1333 10.3392 13.1 10.1053 12 10.1053C10.9 10.1053 9.86667 10.3392 8.9 10.807C7.93333 11.2749 7.08333 11.9205 6.35 12.7439ZM2.1 7.97195L0 5.61405C1.53333 3.85498 3.325 2.47954 5.375 1.48772C7.425 0.495908 9.63333 0 12 0C14.3667 0 16.575 0.495908 18.625 1.48772C20.675 2.47954 22.4667 3.85498 24 5.61405L21.9 7.97195C20.6167 6.53101 19.129 5.40334 17.437 4.58893C15.745 3.77451 13.9327 3.36768 12 3.36843C10.0667 3.36843 8.254 3.77564 6.562 4.59005C4.87 5.40446 3.38267 6.53176 2.1 7.97195ZM12 19.0878L15.525 15.1018C15.075 14.5965 14.55 14.1987 13.95 13.9082C13.35 13.6178 12.7 13.473 12 13.4737C11.3 13.4737 10.65 13.6189 10.05 13.9094C9.45 14.1998 8.925 14.5973 8.475 15.1018L12 19.0878Z" fill="#909090"/>
</svg>
