<svg width="14" height="21" viewBox="0 0 14 21" fill="none" xmlns="http://www.w3.org/2000/svg">
<mask id="mask0_16_581" style="mask-type:luminance" maskUnits="userSpaceOnUse" x="0" y="-1" width="14" height="22">
<path d="M0 -0.000610352H14V20.0124H0V-0.000610352Z" fill="white"/>
</mask>
<g mask="url(#mask0_16_581)">
<path d="M11.9999 0H1.99991C0.89493 0 0 0.895562 0 2.00133V18.0114C0 19.1171 0.89493 20.0026 1.99991 20.0026L11.9999 20.0127C13.1049 20.0127 14 19.1171 14 18.0114V2.00133C14 0.895562 13.1049 0 11.9999 0ZM7 2.00133C8.10498 2.00133 8.99991 2.8969 8.99991 4.00251C8.99991 5.10828 8.10498 6.00384 7 6.00384C5.89486 6.00384 4.99993 5.10828 4.99993 4.00251C4.99993 2.8969 5.89486 2.00133 7 2.00133ZM7 18.0114C4.23992 18.0114 1.99991 15.7699 1.99991 13.0083C1.99991 10.2465 4.23992 8.00502 7 8.00502C9.75992 8.00502 11.9999 10.2465 11.9999 13.0083C11.9999 15.7699 9.75992 18.0114 7 18.0114ZM7 10.0064C5.3449 10.0064 3.99998 11.3522 3.99998 13.0083C3.99998 14.6643 5.3449 16.0102 7 16.0102C8.65494 16.0102 9.99986 14.6643 9.99986 13.0083C9.99986 11.3522 8.65494 10.0064 7 10.0064Z" fill="#191F23"/>
</g>
</svg>
