<svg width="34" height="19" viewBox="0 0 34 19" fill="none" xmlns="http://www.w3.org/2000/svg">
<path d="M3.50894 8.76975H30.4845V10.4677H3.50894V8.76975Z" fill="white"/>
<mask id="mask0_16_813" style="mask-type:luminance" maskUnits="userSpaceOnUse" x="-1" y="0" width="36" height="11">
<path d="M-0.0281808 0H34.0112V10.4834H-0.0281808V0Z" fill="white"/>
</mask>
<g mask="url(#mask0_16_813)">
<path d="M32.2456 0H1.75441C0.788744 0 0 0.787834 0 1.75236V7.3897C0 8.93166 1.14919 10.2152 2.6315 10.4258V8.32713C2.6315 8.08258 2.82869 7.88562 3.07369 7.88562H30.9263C31.1711 7.88562 31.3685 8.08258 31.3685 8.32713V10.4258C32.8577 10.2152 34 8.93166 34 7.3897V1.75236C34 0.787834 33.2113 0 32.2456 0ZM31.8037 2.62854H29.7161C29.4711 2.62854 29.2739 2.43158 29.2739 2.18704C29.2739 1.94249 29.4711 1.74553 29.7161 1.74553H31.8037C32.0484 1.74553 32.2456 1.94249 32.2456 2.18704C32.2456 2.43158 32.0484 2.62854 31.8037 2.62854Z" fill="white"/>
</g>
<mask id="mask1_16_813" style="mask-type:luminance" maskUnits="userSpaceOnUse" x="4" y="12" width="3" height="7">
<path d="M4.49962 12.4412H6.88954V18.8912H4.49962V12.4412Z" fill="white"/>
</mask>
<g mask="url(#mask1_16_813)">
<path d="M6.27842 12.4855C6.04048 12.5194 5.87039 12.7435 5.90454 12.9812C6.16958 14.8287 5.71396 16.6763 4.62602 18.1909C4.48326 18.3879 4.53084 18.6595 4.72803 18.8021C4.80294 18.8565 4.89812 18.8836 4.98647 18.8836C5.1224 18.8836 5.25834 18.8225 5.34008 18.7003C6.56396 17.0021 7.074 14.9239 6.7748 12.8523C6.74088 12.6214 6.51637 12.4516 6.27842 12.4855Z" fill="white"/>
</g>
<mask id="mask2_16_813" style="mask-type:luminance" maskUnits="userSpaceOnUse" x="7" y="12" width="4" height="7">
<path d="M7.82233 12.4412H10.2122V18.8912H7.82233V12.4412Z" fill="white"/>
</mask>
<g mask="url(#mask2_16_813)">
<path d="M9.61049 12.4855C9.37232 12.5194 9.20246 12.7435 9.23639 12.9812C9.50165 14.8287 9.04603 16.6763 7.95809 18.1909C7.8151 18.3879 7.86269 18.6595 8.05987 18.8021C8.13479 18.8565 8.22996 18.8836 8.31831 18.8836C8.45447 18.8836 8.59041 18.8225 8.67192 18.7003C9.89603 17.0021 10.4061 14.9239 10.1069 12.8523C10.0727 12.6214 9.85527 12.4516 9.61049 12.4855Z" fill="white"/>
</g>
<mask id="mask3_16_813" style="mask-type:luminance" maskUnits="userSpaceOnUse" x="11" y="12" width="3" height="7">
<path d="M11.203 12.4412H13.5347V18.8912H11.203V12.4412Z" fill="white"/>
</mask>
<g mask="url(#mask3_16_813)">
<path d="M12.9493 12.4857C12.7114 12.5197 12.5413 12.7437 12.5752 12.9814C12.8405 14.829 12.3849 16.6765 11.2969 18.1912C11.1542 18.3881 11.2017 18.6598 11.3989 18.8023C11.4736 18.8567 11.5688 18.8838 11.6574 18.8838C11.7933 18.8838 11.9292 18.8228 12.011 18.7005C13.2349 17.0023 13.7449 14.9242 13.4457 12.8526C13.4118 12.6217 13.1873 12.4518 12.9493 12.4857Z" fill="white"/>
</g>
<mask id="mask4_16_813" style="mask-type:luminance" maskUnits="userSpaceOnUse" x="22" y="12" width="3" height="7">
<path d="M22.3948 12.4412H24.7847V18.8912H22.3948V12.4412Z" fill="white"/>
</mask>
<g mask="url(#mask4_16_813)">
<path d="M23.3739 12.9816C23.4078 12.7439 23.2446 12.5198 22.9998 12.4859C22.7618 12.4519 22.5373 12.615 22.5034 12.8595C22.2042 14.9311 22.7142 17.0093 23.9381 18.7075C24.0267 18.8229 24.1558 18.8908 24.2917 18.8908C24.3803 18.8908 24.4687 18.8637 24.5502 18.8093C24.7474 18.6667 24.7881 18.3949 24.6522 18.1979C23.5642 16.6833 23.1086 14.8291 23.3739 12.9816Z" fill="white"/>
</g>
<mask id="mask5_16_813" style="mask-type:luminance" maskUnits="userSpaceOnUse" x="19" y="12" width="3" height="7">
<path d="M19.1307 12.4412H21.404V18.8912H19.1307V12.4412Z" fill="white"/>
</mask>
<g mask="url(#mask5_16_813)">
<path d="M20.0415 12.9205C20.0415 12.6759 19.8443 12.479 19.5995 12.479C19.3548 12.479 19.1576 12.6759 19.1576 12.9205C19.1576 14.7951 19.3274 16.9482 20.5991 18.7074C20.6875 18.8228 20.8168 18.8907 20.9527 18.8907C21.0411 18.8907 21.1294 18.8636 21.2112 18.8092C21.4084 18.6666 21.4491 18.3948 21.3132 18.1978C20.1911 16.6358 20.0415 14.6526 20.0415 12.9205Z" fill="white"/>
</g>
<mask id="mask6_16_813" style="mask-type:luminance" maskUnits="userSpaceOnUse" x="14" y="12" width="3" height="7">
<path d="M14.5257 12.4412H16.799V18.8912H14.5257V12.4412Z" fill="white"/>
</mask>
<g mask="url(#mask6_16_813)">
<path d="M16.3424 12.4857C16.0977 12.4857 15.9005 12.6827 15.9005 12.9272C15.9005 14.6591 15.7509 16.6423 14.6219 18.1977C14.4792 18.3947 14.5268 18.6666 14.724 18.8091C14.7989 18.8635 14.894 18.8906 14.9824 18.8906C15.1186 18.8906 15.2545 18.8296 15.336 18.7073C16.6077 16.9481 16.7776 14.795 16.7776 12.9204C16.7844 12.6827 16.5872 12.4857 16.3424 12.4857Z" fill="white"/>
</g>
<mask id="mask7_16_813" style="mask-type:luminance" maskUnits="userSpaceOnUse" x="25" y="12" width="4" height="7">
<path d="M25.7175 12.4412H28.1074V18.8912H25.7175V12.4412Z" fill="white"/>
</mask>
<g mask="url(#mask7_16_813)">
<path d="M26.7056 12.9816C26.7395 12.7439 26.5765 12.5198 26.3317 12.4859C26.0935 12.4519 25.8693 12.615 25.8351 12.8595C25.5359 14.9311 26.046 17.0093 27.2701 18.7075C27.3584 18.8229 27.4875 18.8908 27.6237 18.8908C27.712 18.8908 27.8004 18.8637 27.8821 18.8093C28.0793 18.6667 28.12 18.3949 27.9841 18.1979C26.8959 16.6833 26.4403 14.8291 26.7056 12.9816Z" fill="white"/>
</g>
<mask id="mask8_16_813" style="mask-type:luminance" maskUnits="userSpaceOnUse" x="29" y="12" width="3" height="7">
<path d="M29.0401 12.4412H31.43V18.8912H29.0401V12.4412Z" fill="white"/>
</mask>
<g mask="url(#mask8_16_813)">
<path d="M30.0446 12.9813C30.0788 12.7436 29.9155 12.5196 29.6707 12.4856C29.4328 12.4517 29.2083 12.6147 29.1744 12.8593C28.8752 14.9309 29.3852 17.0091 30.6091 18.7072C30.6974 18.8227 30.8268 18.8905 30.9627 18.8905C31.051 18.8905 31.1396 18.8634 31.2211 18.809C31.4183 18.6665 31.4591 18.3946 31.3231 18.1977C30.2352 16.683 29.7796 14.8289 30.0446 12.9813Z" fill="white"/>
</g>
</svg>
