<svg width="22" height="17" viewBox="0 0 22 17" fill="none" xmlns="http://www.w3.org/2000/svg">
<path d="M20.8636 1.54545H17V0.193182C17 0.0869318 16.9131 0 16.8068 0H15.4545C15.3483 0 15.2614 0.0869318 15.2614 0.193182V1.54545H11.6875V0.193182C11.6875 0.0869318 11.6006 0 11.4943 0H10.142C10.0358 0 9.94886 0.0869318 9.94886 0.193182V1.54545H6.375V0.193182C6.375 0.0869318 6.28807 0 6.18182 0H4.82955C4.7233 0 4.63636 0.0869318 4.63636 0.193182V1.54545H0.772727C0.345313 1.54545 0 1.89077 0 2.31818V16.2273C0 16.6547 0.345313 17 0.772727 17H20.8636C21.2911 17 21.6364 16.6547 21.6364 16.2273V2.31818C21.6364 1.89077 21.2911 1.54545 20.8636 1.54545ZM19.8977 15.2614H1.73864V3.28409H4.63636V4.63636C4.63636 4.74261 4.7233 4.82955 4.82955 4.82955H6.18182C6.28807 4.82955 6.375 4.74261 6.375 4.63636V3.28409H9.94886V4.63636C9.94886 4.74261 10.0358 4.82955 10.142 4.82955H11.4943C11.6006 4.82955 11.6875 4.74261 11.6875 4.63636V3.28409H15.2614V4.63636C15.2614 4.74261 15.3483 4.82955 15.4545 4.82955H16.8068C16.9131 4.82955 17 4.74261 17 4.63636V3.28409H19.8977V15.2614ZM8.5 8.11364H4.05682C3.95057 8.11364 3.86364 8.20057 3.86364 8.30682V9.46591C3.86364 9.57216 3.95057 9.65909 4.05682 9.65909H8.5C8.60625 9.65909 8.69318 9.57216 8.69318 9.46591V8.30682C8.69318 8.20057 8.60625 8.11364 8.5 8.11364ZM8.5 11.3977H4.05682C3.95057 11.3977 3.86364 11.4847 3.86364 11.5909V12.75C3.86364 12.8562 3.95057 12.9432 4.05682 12.9432H8.5C8.60625 12.9432 8.69318 12.8562 8.69318 12.75V11.5909C8.69318 11.4847 8.60625 11.3977 8.5 11.3977ZM15.9423 7.11392L13.4406 10.5839L12.1656 8.81875C12.0932 8.71733 11.9773 8.65937 11.8541 8.65937H10.5284C10.3714 8.65937 10.2797 8.83807 10.3714 8.96605L13.1267 12.7862C13.1623 12.8356 13.2091 12.8758 13.2632 12.9035C13.3174 12.9313 13.3774 12.9457 13.4382 12.9457C13.4991 12.9457 13.559 12.9313 13.6132 12.9035C13.6674 12.8758 13.7141 12.8356 13.7497 12.7862L17.7341 7.26364C17.8259 7.13565 17.7341 6.95696 17.5771 6.95696H16.2514C16.1307 6.95455 16.0148 7.01491 15.9423 7.11392Z" fill="#848383"/>
</svg>
