<svg width="24" height="15" viewBox="0 0 24 15" fill="none" xmlns="http://www.w3.org/2000/svg">
<path d="M9.14284 14.8571H16V13.7142H9.14284V14.8571Z" fill="black"/>
<path d="M22.2856 11.7334H21.4285V10.8953H22.2856V11.7334ZM20.5715 11.7334H16.2856V10.8953H20.5715V11.7334ZM0 0V12.5714H24V0H0Z" fill="black"/>
<path d="M1.66674 7.35275C2.79964 7.35266 3.86507 7.79443 4.66634 8.59569C5.4676 9.39695 5.90937 10.4624 5.90928 11.5953C5.90928 11.6687 5.93859 11.7347 5.98707 11.7832C6.03547 11.8316 6.10149 11.8609 6.1749 11.8609C6.32173 11.8609 6.4398 11.7429 6.4398 11.596C6.4398 10.3208 5.94379 9.12183 5.04199 8.22003C4.1402 7.31824 2.94127 6.82223 1.66601 6.82223C1.51918 6.82223 1.40111 6.9403 1.40111 7.08713C1.40029 7.23459 1.51918 7.35348 1.66674 7.35275Z" fill="black"/>
<path d="M4.83194 11.7539C4.88042 11.8023 4.94644 11.8317 5.01986 11.8317C5.1665 11.8317 5.28466 11.7135 5.28466 11.5669C5.28466 10.5924 4.90608 9.6767 4.21704 8.98766C3.528 8.29861 2.61232 7.92004 1.63784 7.92004C1.49119 7.92004 1.37304 8.03819 1.37304 8.18484C1.37231 8.3324 1.49119 8.45129 1.63866 8.45047C3.35633 8.45129 4.75341 9.84836 4.75423 11.566C4.75423 11.6394 4.78354 11.7055 4.83194 11.7539Z" fill="black"/>
<path d="M3.67677 11.7246C3.72516 11.773 3.79127 11.8024 3.8646 11.8023C4.0107 11.8031 4.12949 11.6843 4.12949 11.5374C4.12949 10.8639 3.86825 10.2314 3.39206 9.7552C2.91586 9.27901 2.28335 9.01776 1.60983 9.01776C1.463 9.01776 1.3442 9.13656 1.34493 9.28266C1.34411 9.43013 1.463 9.54902 1.61056 9.54829C2.14108 9.54902 2.64074 9.7552 3.0164 10.1309C3.39206 10.5065 3.59824 11.0062 3.59897 11.5367C3.59897 11.6101 3.62828 11.6761 3.67677 11.7246Z" fill="black"/>
<path d="M1.5763 10.1205C1.42965 10.1205 1.31076 10.2394 1.31067 10.3862C1.31076 10.5329 1.42956 10.6517 1.5763 10.6518C2.05039 10.6518 2.43774 11.0391 2.43774 11.5132C2.43783 11.5866 2.46714 11.6526 2.51553 11.701C2.56402 11.7495 2.63004 11.7788 2.70336 11.7789C2.8501 11.7788 2.96899 11.6599 2.96899 11.5132C2.96826 10.7449 2.3446 10.1213 1.5763 10.1205Z" fill="black"/>
</svg>
