<svg width="45" height="45" viewBox="0 0 45 45" fill="none" xmlns="http://www.w3.org/2000/svg">
<circle cx="22.5" cy="22.5" r="21" fill="#F77695" stroke="#EC7591" stroke-width="3"/>
<path d="M13.2654 22.6161H30.5424V23.7036H13.2654V22.6161Z" fill="white"/>
<mask id="mask0_16_682" style="mask-type:luminance" maskUnits="userSpaceOnUse" x="11" y="17" width="22" height="7">
<path d="M11 17H32.8012V23.7143H11V17Z" fill="white"/>
</mask>
<g mask="url(#mask0_16_682)">
<path d="M31.6704 17H12.1417C11.5232 17 11.0181 17.5046 11.0181 18.1223V21.7329C11.0181 22.7205 11.7541 23.5425 12.7035 23.6774V22.3333C12.7035 22.1766 12.8298 22.0505 12.9867 22.0505H30.8255C30.9822 22.0505 31.1087 22.1766 31.1087 22.3333V23.6774C32.0624 23.5425 32.7941 22.7205 32.7941 21.7329V18.1223C32.7941 17.5046 32.2889 17 31.6704 17ZM31.3874 18.6835H30.0504C29.8934 18.6835 29.7671 18.5574 29.7671 18.4007C29.7671 18.2441 29.8934 18.118 30.0504 18.118H31.3874C31.5441 18.118 31.6704 18.2441 31.6704 18.4007C31.6704 18.5574 31.5441 18.6835 31.3874 18.6835Z" fill="white"/>
</g>
<mask id="mask1_16_682" style="mask-type:luminance" maskUnits="userSpaceOnUse" x="13" y="24" width="3" height="6">
<path d="M13.8999 24.9677H15.4306V29.0987H13.8999V24.9677Z" fill="white"/>
</mask>
<g mask="url(#mask1_16_682)">
<path d="M15.0392 24.9965C14.8868 25.0183 14.7778 25.1618 14.7997 25.314C14.9694 26.4973 14.6776 27.6806 13.9808 28.6507C13.8894 28.7768 13.9199 28.9508 14.0462 29.0421C14.0942 29.077 14.1551 29.0943 14.2117 29.0943C14.2988 29.0943 14.3858 29.0552 14.4382 28.9769C15.222 27.8893 15.5487 26.5583 15.3571 25.2315C15.3353 25.0836 15.1915 24.9748 15.0392 24.9965Z" fill="white"/>
</g>
<mask id="mask2_16_682" style="mask-type:luminance" maskUnits="userSpaceOnUse" x="16" y="24" width="2" height="6">
<path d="M16.028 24.9677H17.5586V29.0987H16.028V24.9677Z" fill="white"/>
</mask>
<g mask="url(#mask2_16_682)">
<path d="M17.1733 24.9965C17.0208 25.0183 16.912 25.1618 16.9337 25.314C17.1036 26.4973 16.8118 27.6806 16.115 28.6507C16.0234 28.7768 16.0539 28.9508 16.1802 29.0421C16.2282 29.077 16.2891 29.0943 16.3457 29.0943C16.4329 29.0943 16.52 29.0552 16.5722 28.9769C17.3562 27.8893 17.6829 26.5583 17.4912 25.2315C17.4694 25.0836 17.3301 24.9748 17.1733 24.9965Z" fill="white"/>
</g>
<mask id="mask3_16_682" style="mask-type:luminance" maskUnits="userSpaceOnUse" x="18" y="24" width="2" height="6">
<path d="M18.1932 24.9677H19.6866V29.0987H18.1932V24.9677Z" fill="white"/>
</mask>
<g mask="url(#mask3_16_682)">
<path d="M19.3116 24.9965C19.1592 25.0183 19.0503 25.1618 19.072 25.314C19.2419 26.4973 18.9501 27.6806 18.2533 28.6507C18.1619 28.7768 18.1924 28.9508 18.3187 29.0421C18.3665 29.077 18.4274 29.0943 18.4842 29.0943C18.5712 29.0943 18.6583 29.0552 18.7107 28.9769C19.4945 27.8893 19.8212 26.5583 19.6296 25.2315C19.6078 25.0836 19.464 24.9748 19.3116 24.9965Z" fill="white"/>
</g>
<mask id="mask4_16_682" style="mask-type:luminance" maskUnits="userSpaceOnUse" x="25" y="24" width="2" height="6">
<path d="M25.3612 24.9677H26.8919V29.0987H25.3612V24.9677Z" fill="white"/>
</mask>
<g mask="url(#mask4_16_682)">
<path d="M25.9881 25.314C26.0099 25.1617 25.9053 25.0182 25.7485 24.9965C25.5961 24.9748 25.4524 25.0792 25.4306 25.2358C25.239 26.5626 25.5657 27.8936 26.3495 28.9813C26.4062 29.0552 26.4889 29.0987 26.576 29.0987C26.6327 29.0987 26.6893 29.0813 26.7415 29.0464C26.8678 28.9552 26.8939 28.781 26.8069 28.6549C26.1101 27.6848 25.8182 26.4973 25.9881 25.314Z" fill="white"/>
</g>
<mask id="mask5_16_682" style="mask-type:luminance" maskUnits="userSpaceOnUse" x="23" y="24" width="2" height="6">
<path d="M23.2706 24.9677H24.7266V29.0987H23.2706V24.9677Z" fill="white"/>
</mask>
<g mask="url(#mask5_16_682)">
<path d="M23.8541 25.275C23.8541 25.1183 23.7278 24.9922 23.571 24.9922C23.4143 24.9922 23.288 25.1183 23.288 25.275C23.288 26.4756 23.3968 27.8546 24.2113 28.9813C24.2678 29.0552 24.3507 29.0987 24.4377 29.0987C24.4943 29.0987 24.5509 29.0814 24.6033 29.0465C24.7295 28.9552 24.7556 28.7811 24.6686 28.6549C23.9499 27.6545 23.8541 26.3843 23.8541 25.275Z" fill="white"/>
</g>
<mask id="mask6_16_682" style="mask-type:luminance" maskUnits="userSpaceOnUse" x="20" y="24" width="2" height="6">
<path d="M20.3213 24.9677H21.7773V29.0987H20.3213V24.9677Z" fill="white"/>
</mask>
<g mask="url(#mask6_16_682)">
<path d="M21.4849 24.9966C21.3281 24.9966 21.2018 25.1227 21.2018 25.2794C21.2018 26.3886 21.106 27.6588 20.383 28.655C20.2915 28.7811 20.322 28.9552 20.4483 29.0465C20.4963 29.0814 20.5572 29.0987 20.6138 29.0987C20.701 29.0987 20.7881 29.0596 20.8403 28.9813C21.6548 27.8546 21.7636 26.4756 21.7636 25.275C21.768 25.1227 21.6417 24.9966 21.4849 24.9966Z" fill="white"/>
</g>
<mask id="mask7_16_682" style="mask-type:luminance" maskUnits="userSpaceOnUse" x="27" y="24" width="3" height="6">
<path d="M27.4893 24.9677H29.0199V29.0987H27.4893V24.9677Z" fill="white"/>
</mask>
<g mask="url(#mask7_16_682)">
<path d="M28.1222 25.314C28.1439 25.1617 28.0395 25.0182 27.8827 24.9965C27.7302 24.9748 27.5865 25.0792 27.5647 25.2358C27.373 26.5626 27.6997 27.8936 28.4837 28.9813C28.5403 29.0552 28.623 29.0987 28.7102 29.0987C28.7668 29.0987 28.8233 29.0813 28.8757 29.0464C29.002 28.9552 29.0281 28.781 28.941 28.6549C28.2441 27.6848 27.9523 26.4973 28.1222 25.314Z" fill="white"/>
</g>
<mask id="mask8_16_682" style="mask-type:luminance" maskUnits="userSpaceOnUse" x="29" y="24" width="3" height="6">
<path d="M29.6173 24.9677H31.148V29.0987H29.6173V24.9677Z" fill="white"/>
</mask>
<g mask="url(#mask8_16_682)">
<path d="M30.2606 25.314C30.2825 25.1617 30.1779 25.0182 30.0211 24.9965C29.8687 24.9748 29.7249 25.0792 29.7032 25.2358C29.5116 26.5626 29.8382 27.8936 30.6221 28.9813C30.6787 29.0552 30.7615 29.0987 30.8486 29.0987C30.9052 29.0987 30.9619 29.0813 31.0141 29.0464C31.1404 28.9552 31.1665 28.781 31.0794 28.6549C30.3826 27.6848 30.0908 26.4973 30.2606 25.314Z" fill="white"/>
</g>
</svg>
