<svg width="67" height="495" viewBox="0 0 67 495" fill="none" xmlns="http://www.w3.org/2000/svg">
<path d="M26.3333 17.1583H30.4445V21.448H26.3333V17.1583Z" fill="black"/>
<path opacity="0.3" d="M22.2217 34.3169H42.7773V4.28938H22.2217V34.3169ZM26.3328 17.1583H30.4439V21.448H26.3328V17.1583Z" fill="#339DFF"/>
<path d="M46.8889 34.3172V4.28965C46.8889 1.93034 45.0389 0 42.7778 0H22.2222C19.9611 0 18.1111 1.93034 18.1111 4.28965V34.3172H14V38.6068H51V34.3172H46.8889ZM42.7778 34.3172H22.2222V4.28965H42.7778V34.3172Z" fill="#339DFF"/>
<mask id="mask0_10_401" style="mask-type:luminance" maskUnits="userSpaceOnUse" x="27" y="138" width="11" height="10">
<path d="M27.7333 138.306H37.3533V147.862H27.7333V138.306Z" fill="white"/>
</mask>
<g mask="url(#mask0_10_401)">
<path d="M27.8027 143.107C27.8027 145.734 29.9328 147.864 32.5609 147.864C35.1887 147.864 37.3188 145.734 37.3188 143.107C37.3188 140.479 35.1887 138.35 32.5609 138.35C29.9328 138.35 27.8027 140.479 27.8027 143.107Z" fill="#F5CBD2"/>
</g>
<mask id="mask1_10_401" style="mask-type:luminance" maskUnits="userSpaceOnUse" x="32" y="115" width="2" height="16">
<path d="M32 115.859H33.9333V130.679H32V115.859Z" fill="white"/>
</mask>
<g mask="url(#mask1_10_401)">
<path d="M33.8289 115.86H32.0095V130.654H33.8289V115.86Z" fill="#F1425D"/>
</g>
<path d="M35.1846 129.553C35.1846 130.149 34.7022 130.632 34.1067 130.632H31.4918C30.8963 130.632 30.4136 130.149 30.4136 129.553V127.853C30.4136 127.258 30.8963 126.775 31.4918 126.775H34.1067C34.7022 126.775 35.1846 127.258 35.1846 127.853V129.553Z" fill="#F1425D"/>
<mask id="mask2_10_401" style="mask-type:luminance" maskUnits="userSpaceOnUse" x="13" y="128" width="39" height="16">
<path d="M13.1341 128.773H51.8741V143.159H13.1341V128.773Z" fill="white"/>
</mask>
<g mask="url(#mask2_10_401)">
<path d="M51.8412 143.107C49.3269 134.905 41.7364 128.904 32.6991 128.817C23.5266 128.73 15.7236 134.763 13.1676 143.107H51.8412Z" fill="#F1425D"/>
</g>
<mask id="mask3_10_401" style="mask-type:luminance" maskUnits="userSpaceOnUse" x="13" y="132" width="39" height="12">
<path d="M13.1341 132.846H51.8741V143.159H13.1341V132.846Z" fill="white"/>
</mask>
<g mask="url(#mask3_10_401)">
<path d="M20.3609 132.871C16.9897 135.407 14.4341 138.972 13.1676 143.107H51.8412C51.5829 142.265 51.2684 141.447 50.9068 140.655C30.2199 142.079 22.9067 136.478 20.3609 132.871Z" fill="#F1425D"/>
</g>
<mask id="mask4_10_401" style="mask-type:luminance" maskUnits="userSpaceOnUse" x="27" y="474" width="11" height="10">
<path d="M27.7333 474.306H37.3533V483.863H27.7333V474.306Z" fill="white"/>
</mask>
<g mask="url(#mask4_10_401)">
<path d="M27.8027 479.107C27.8027 481.735 29.9328 483.864 32.5609 483.864C35.1887 483.864 37.3188 481.735 37.3188 479.107C37.3188 476.48 35.1887 474.35 32.5609 474.35C29.9328 474.35 27.8027 476.48 27.8027 479.107Z" fill="#F5CBD2"/>
</g>
<mask id="mask5_10_401" style="mask-type:luminance" maskUnits="userSpaceOnUse" x="32" y="451" width="2" height="16">
<path d="M32 451.86H33.9333V466.68H32V451.86Z" fill="white"/>
</mask>
<g mask="url(#mask5_10_401)">
<path d="M33.8289 451.86H32.0095V466.655H33.8289V451.86Z" fill="#F1425D"/>
</g>
<path d="M35.1846 465.554C35.1846 466.149 34.7022 466.632 34.1067 466.632H31.4918C30.8963 466.632 30.4136 466.149 30.4136 465.554V463.853C30.4136 463.258 30.8963 462.775 31.4918 462.775H34.1067C34.7022 462.775 35.1846 463.258 35.1846 463.853V465.554Z" fill="#F1425D"/>
<mask id="mask6_10_401" style="mask-type:luminance" maskUnits="userSpaceOnUse" x="13" y="464" width="39" height="16">
<path d="M13.1341 464.773H51.8741V479.16H13.1341V464.773Z" fill="white"/>
</mask>
<g mask="url(#mask6_10_401)">
<path d="M51.8412 479.107C49.3269 470.905 41.7364 464.904 32.6991 464.818C23.5266 464.73 15.7236 470.763 13.1676 479.107H51.8412Z" fill="#F1425D"/>
</g>
<mask id="mask7_10_401" style="mask-type:luminance" maskUnits="userSpaceOnUse" x="13" y="468" width="39" height="12">
<path d="M13.1341 468.846H51.8741V479.16H13.1341V468.846Z" fill="white"/>
</mask>
<g mask="url(#mask7_10_401)">
<path d="M20.3609 468.871C16.9897 471.407 14.4341 474.973 13.1676 479.107H51.8412C51.5829 478.265 51.2684 477.447 50.9068 476.655C30.2199 478.079 22.9067 472.478 20.3609 468.871Z" fill="#F1425D"/>
</g>
<path d="M19.5812 241.132H50.4331V243.073H19.5812V241.132Z" fill="white"/>
<mask id="mask8_10_401" style="mask-type:luminance" maskUnits="userSpaceOnUse" x="15" y="231" width="40" height="13">
<path d="M15.5359 231.103H54.4667V243.093H15.5359V231.103Z" fill="white"/>
</mask>
<g mask="url(#mask8_10_401)">
<path d="M52.4474 231.103H17.5747C16.4703 231.103 15.5682 232.004 15.5682 233.107V239.554C15.5682 241.318 16.8826 242.786 18.5779 243.027V240.627C18.5779 240.347 18.8034 240.122 19.0836 240.122H50.9386C51.2185 240.122 51.4443 240.347 51.4443 240.627V243.027C53.1474 242.786 54.4539 241.318 54.4539 239.554V233.107C54.4539 232.004 53.5518 231.103 52.4474 231.103ZM51.9419 234.109H49.5544C49.2742 234.109 49.0487 233.884 49.0487 233.604C49.0487 233.324 49.2742 233.099 49.5544 233.099H51.9419C52.2219 233.099 52.4474 233.324 52.4474 233.604C52.4474 233.884 52.2219 234.109 51.9419 234.109Z" fill="#FFA625"/>
</g>
<mask id="mask9_10_401" style="mask-type:luminance" maskUnits="userSpaceOnUse" x="19" y="245" width="4" height="8">
<path d="M19.6 245.026H22.3333V252.403H19.6V245.026Z" fill="white"/>
</mask>
<g mask="url(#mask9_10_401)">
<path d="M21.6344 245.078C21.3623 245.116 21.1677 245.373 21.2068 245.645C21.5099 247.758 20.9888 249.871 19.7446 251.603C19.5813 251.828 19.6357 252.139 19.8612 252.302C19.9469 252.364 20.0557 252.395 20.1568 252.395C20.3123 252.395 20.4677 252.325 20.5612 252.185C21.961 250.243 22.5443 247.866 22.2021 245.497C22.1633 245.233 21.9065 245.039 21.6344 245.078Z" fill="#FFA625"/>
</g>
<mask id="mask10_10_401" style="mask-type:luminance" maskUnits="userSpaceOnUse" x="23" y="245" width="4" height="8">
<path d="M23.4 245.026H26.1333V252.403H23.4V245.026Z" fill="white"/>
</mask>
<g mask="url(#mask10_10_401)">
<path d="M25.4453 245.078C25.1729 245.116 24.9786 245.373 25.0174 245.645C25.3208 247.758 24.7997 249.871 23.5555 251.603C23.3919 251.828 23.4463 252.139 23.6719 252.302C23.7575 252.364 23.8664 252.395 23.9674 252.395C24.1232 252.395 24.2786 252.325 24.3719 252.185C25.7719 250.243 26.3552 247.866 26.013 245.497C25.9739 245.233 25.7252 245.039 25.4453 245.078Z" fill="#FFA625"/>
</g>
<mask id="mask11_10_401" style="mask-type:luminance" maskUnits="userSpaceOnUse" x="27" y="245" width="3" height="8">
<path d="M27.2667 245.026H29.9333V252.403H27.2667V245.026Z" fill="white"/>
</mask>
<g mask="url(#mask11_10_401)">
<path d="M29.2638 245.078C28.9917 245.116 28.7971 245.373 28.8359 245.645C29.1393 247.758 28.6182 249.871 27.3739 251.603C27.2107 251.828 27.2651 252.139 27.4906 252.302C27.576 252.364 27.6849 252.395 27.7862 252.395C27.9417 252.395 28.0971 252.325 28.1906 252.185C29.5904 250.243 30.1737 247.866 29.8315 245.497C29.7927 245.233 29.5359 245.039 29.2638 245.078Z" fill="#FFA625"/>
</g>
<mask id="mask12_10_401" style="mask-type:luminance" maskUnits="userSpaceOnUse" x="40" y="245" width="3" height="8">
<path d="M40.0667 245.026H42.8V252.403H40.0667V245.026Z" fill="white"/>
</mask>
<g mask="url(#mask12_10_401)">
<path d="M41.1862 245.645C41.225 245.373 41.0383 245.116 40.7583 245.078C40.4862 245.039 40.2294 245.225 40.1906 245.505C39.8484 247.874 40.4318 250.251 41.8315 252.193C41.9328 252.325 42.0805 252.403 42.2359 252.403C42.3372 252.403 42.4383 252.372 42.5315 252.31C42.757 252.147 42.8036 251.836 42.6482 251.61C41.4039 249.878 40.8828 247.758 41.1862 245.645Z" fill="#FFA625"/>
</g>
<mask id="mask13_10_401" style="mask-type:luminance" maskUnits="userSpaceOnUse" x="36" y="245" width="3" height="8">
<path d="M36.3333 245.026H38.9333V252.403H36.3333V245.026Z" fill="white"/>
</mask>
<g mask="url(#mask13_10_401)">
<path d="M37.3753 245.575C37.3753 245.295 37.1497 245.07 36.8698 245.07C36.5898 245.07 36.3643 245.295 36.3643 245.575C36.3643 247.719 36.5586 250.181 38.013 252.193C38.1141 252.325 38.262 252.403 38.4174 252.403C38.5185 252.403 38.6195 252.372 38.713 252.31C38.9385 252.147 38.9852 251.836 38.8297 251.61C37.5464 249.824 37.3753 247.556 37.3753 245.575Z" fill="#FFA625"/>
</g>
<mask id="mask14_10_401" style="mask-type:luminance" maskUnits="userSpaceOnUse" x="31" y="245" width="3" height="8">
<path d="M31.0667 245.026H33.6667V252.403H31.0667V245.026Z" fill="white"/>
</mask>
<g mask="url(#mask14_10_401)">
<path d="M33.1445 245.078C32.8646 245.078 32.639 245.303 32.639 245.583C32.639 247.563 32.4679 249.832 31.1768 251.61C31.0135 251.836 31.0679 252.147 31.2935 252.31C31.3791 252.372 31.488 252.403 31.589 252.403C31.7448 252.403 31.9002 252.333 31.9935 252.193C33.4479 250.181 33.6422 247.719 33.6422 245.575C33.65 245.303 33.4245 245.078 33.1445 245.078Z" fill="#FFA625"/>
</g>
<mask id="mask15_10_401" style="mask-type:luminance" maskUnits="userSpaceOnUse" x="43" y="245" width="4" height="8">
<path d="M43.8666 245.026H46.6V252.403H43.8666V245.026Z" fill="white"/>
</mask>
<g mask="url(#mask15_10_401)">
<path d="M44.9969 245.645C45.0357 245.373 44.8492 245.116 44.5693 245.078C44.2969 245.039 44.0403 245.225 44.0013 245.505C43.6591 247.874 44.2424 250.251 45.6424 252.193C45.7435 252.325 45.8911 252.403 46.0469 252.403C46.1479 252.403 46.2489 252.372 46.3424 252.31C46.568 252.147 46.6146 251.836 46.4591 251.61C45.2146 249.878 44.6935 247.758 44.9969 245.645Z" fill="#FFA625"/>
</g>
<mask id="mask16_10_401" style="mask-type:luminance" maskUnits="userSpaceOnUse" x="47" y="245" width="4" height="8">
<path d="M47.6667 245.026H50.4V252.403H47.6667V245.026Z" fill="white"/>
</mask>
<g mask="url(#mask16_10_401)">
<path d="M48.8154 245.645C48.8544 245.373 48.6677 245.116 48.3878 245.078C48.1156 245.039 47.8589 245.225 47.8201 245.505C47.4779 247.874 48.0612 250.251 49.461 252.193C49.562 252.325 49.7099 252.403 49.8654 252.403C49.9664 252.403 50.0677 252.372 50.161 252.31C50.3865 252.147 50.4331 251.836 50.2776 251.61C49.0334 249.878 48.5123 247.758 48.8154 245.645Z" fill="#FFA625"/>
</g>
<mask id="mask17_10_401" style="mask-type:luminance" maskUnits="userSpaceOnUse" x="29" y="362" width="11" height="10">
<path d="M29.7333 362.306H39.3533V371.862H29.7333V362.306Z" fill="white"/>
</mask>
<g mask="url(#mask17_10_401)">
<path d="M29.8027 367.107C29.8027 369.734 31.9328 371.864 34.5609 371.864C37.1887 371.864 39.3188 369.734 39.3188 367.107C39.3188 364.479 37.1887 362.35 34.5609 362.35C31.9328 362.35 29.8027 364.479 29.8027 367.107Z" fill="#C2E2FF"/>
</g>
<mask id="mask18_10_401" style="mask-type:luminance" maskUnits="userSpaceOnUse" x="34" y="339" width="2" height="16">
<path d="M34 339.859H35.9333V354.679H34V339.859Z" fill="white"/>
</mask>
<g mask="url(#mask18_10_401)">
<path d="M35.8289 339.86H34.0095V354.654H35.8289V339.86Z" fill="#339DFF"/>
</g>
<path d="M37.1846 353.553C37.1846 354.149 36.7022 354.632 36.1067 354.632H33.4918C32.8963 354.632 32.4136 354.149 32.4136 353.553V351.853C32.4136 351.258 32.8963 350.775 33.4918 350.775H36.1067C36.7022 350.775 37.1846 351.258 37.1846 351.853V353.553Z" fill="#339DFF"/>
<mask id="mask19_10_401" style="mask-type:luminance" maskUnits="userSpaceOnUse" x="15" y="352" width="39" height="16">
<path d="M15.1341 352.773H53.8741V367.159H15.1341V352.773Z" fill="white"/>
</mask>
<g mask="url(#mask19_10_401)">
<path d="M53.8412 367.107C51.3269 358.905 43.7364 352.904 34.6991 352.817C25.5266 352.73 17.7236 358.763 15.1676 367.107H53.8412Z" fill="#339DFF"/>
</g>
<mask id="mask20_10_401" style="mask-type:luminance" maskUnits="userSpaceOnUse" x="15" y="356" width="39" height="12">
<path d="M15.1341 356.846H53.8741V367.159H15.1341V356.846Z" fill="white"/>
</mask>
<g mask="url(#mask20_10_401)">
<path d="M22.3609 356.871C18.9897 359.407 16.4341 362.972 15.1676 367.107H53.8412C53.5829 366.265 53.2684 365.447 52.9068 364.655C32.2199 366.079 24.9067 360.478 22.3609 356.871Z" fill="#339DFF"/>
</g>
</svg>
