<svg width="9" height="15" viewBox="0 0 9 15" fill="none" xmlns="http://www.w3.org/2000/svg">
<path d="M7.15981 0.0628726C7.23989 0.114994 7.30185 0.196065 7.33558 0.29284C7.36932 0.389616 7.37282 0.496375 7.34553 0.595678L5.87204 5.9715H8.59076C8.67066 5.97146 8.74881 5.9977 8.81558 6.04696C8.88235 6.09623 8.93481 6.16637 8.96648 6.24873C8.99816 6.33109 9.00766 6.42206 8.99381 6.51041C8.97996 6.59877 8.94338 6.68063 8.88857 6.7459L2.34335 14.5543C2.28002 14.6299 2.19575 14.6792 2.10427 14.6941C2.01278 14.7091 1.91949 14.6888 1.83959 14.6366C1.75969 14.5844 1.69789 14.5033 1.66428 14.4066C1.63066 14.3099 1.6272 14.2033 1.65447 14.1041L3.12796 8.72739H0.409239C0.329343 8.72742 0.251185 8.70119 0.184416 8.65192C0.117646 8.60265 0.0651875 8.53251 0.0335152 8.45015C0.00184296 8.36779 -0.00765622 8.27682 0.00619027 8.18847C0.0200368 8.10012 0.0566227 8.01825 0.111432 7.95298L6.65665 0.144631C6.7199 0.0691185 6.80405 0.0198519 6.8954 0.00484145C6.98675 -0.010169 7.07994 0.00995943 7.15981 0.061954V0.0628726Z" fill="black"/>
</svg>
