<svg width="14" height="12" viewBox="0 0 14 12" fill="none" xmlns="http://www.w3.org/2000/svg">
<path d="M13.5721 4.57902L8.06294 0.174619C7.92665 0.0638075 7.77059 0.00393692 7.61107 0.00126293C7.45154 -0.00141105 7.29441 0.0532097 7.15608 0.159418C7.00599 0.276208 6.8817 0.443994 6.79583 0.645737C6.70997 0.84748 6.66559 1.07599 6.66721 1.30807V4.3892L1.39578 0.17345C1.25949 0.0626382 1.10343 0.00276766 0.943906 9.36703e-05C0.784381 -0.00258032 0.627246 0.0520404 0.488918 0.158249C0.338826 0.275039 0.214537 0.442825 0.128674 0.644568C0.0428114 0.846311 -0.00156733 1.07482 4.51626e-05 1.3069V9.92081C-0.001619 10.153 0.0427352 10.3815 0.128601 10.5834C0.214466 10.7852 0.338783 10.953 0.488918 11.0699C0.627246 11.1761 0.784381 11.2307 0.943906 11.228C1.10343 11.2253 1.25949 11.1655 1.39578 11.0547L6.66721 6.83695V9.91926C6.66533 10.1517 6.70959 10.3806 6.79547 10.5827C6.88134 10.7848 7.00577 10.9529 7.15608 11.0699C7.29441 11.1761 7.45154 11.2307 7.61107 11.228C7.77059 11.2253 7.92665 11.1655 8.06294 11.0547L13.5721 6.65025C13.7031 6.54063 13.811 6.38833 13.8859 6.20766C13.9607 6.02699 14 5.82387 14 5.61736C14 5.41086 13.9607 5.20774 13.8859 5.02707C13.811 4.8464 13.7031 4.6941 13.5721 4.58448V4.57902Z" fill="black"/>
</svg>
