<svg width="16" height="22" viewBox="0 0 16 22" fill="none" xmlns="http://www.w3.org/2000/svg">
<path d="M7.53893 19.9972H1.32981C0.599914 19.9972 0 19.3972 0 18.6673V3.32953C0 2.59963 0.599914 1.99972 1.32981 1.99972H2.99957V0H8.99872V1.99972H10.6685C11.3984 1.99972 11.9983 2.59963 11.9983 3.32953V9.99858C11.2984 9.99858 10.6285 10.1286 9.99858 10.3485V3.99943H1.99972V17.9974H6.3491C6.60906 18.7473 6.999 19.4172 7.53893 19.9972ZM11.9983 10.9984L14.248 13.2481L11.9983 15.4978V13.998C10.1486 13.998 8.93873 15.9577 9.75861 17.6175L8.66877 18.7073C6.90902 16.0477 8.80875 12.4982 11.9983 12.4982V10.9984ZM11.9983 21.9969L9.74861 19.7472L11.9983 17.4975V18.9973C13.848 18.9973 15.0579 17.0376 14.238 15.3778L15.3278 14.288C17.0876 16.9476 15.1878 20.4971 11.9983 20.4971V21.9969Z" fill="#909090"/>
</svg>
