<svg width="70" height="115" viewBox="0 0 70 115" fill="none" xmlns="http://www.w3.org/2000/svg">
<circle cx="35" cy="35" r="33.35" fill="#F77695" stroke="#EC7591" stroke-width="3.3"/>
<mask id="mask0_16_875" style="mask-type:luminance" maskUnits="userSpaceOnUse" x="23" y="79" width="23" height="36">
<path d="M24.8333 80.6028H43.6111V112.557H24.8333V80.6028Z" fill="white" stroke="white" stroke-width="3"/>
</mask>
<g mask="url(#mask0_16_875)">
<path d="M26.446 112.54H26.4443C25.7042 112.54 24.8333 111.824 24.8333 110.562V82.5993C24.8333 81.3272 25.7134 80.6038 26.4443 80.6038H41.9999C42.7309 80.6038 43.6111 81.3274 43.6111 82.5993V110.562C43.6111 111.834 42.7318 112.557 42.0011 112.558C42.0007 112.558 42.0003 112.558 41.9999 112.558L26.446 112.54ZM38.8332 86.0945C38.8332 83.5041 36.929 81.0993 34.2222 81.0993C31.5153 81.0993 29.611 83.504 29.611 86.0945C29.611 88.6852 31.5152 91.09 34.2222 91.09C36.9291 91.09 38.8332 88.6851 38.8332 86.0945ZM24.9443 101.824C24.9443 107.307 28.9409 112.062 34.2222 112.062C39.5033 112.062 43.4999 107.307 43.4999 101.824C43.4999 96.3408 39.5034 91.5853 34.2222 91.5853C28.9409 91.5853 24.9443 96.3407 24.9443 101.824ZM31.0555 101.824C31.0555 99.5909 32.6356 98.0808 34.2222 98.0808C35.8086 98.0808 37.3887 99.5908 37.3887 101.824C37.3887 104.057 35.8086 105.567 34.2222 105.567C32.6356 105.567 31.0555 104.057 31.0555 101.824Z" fill="white" stroke="white" stroke-width="3"/>
</g>
</svg>
