<svg width="14" height="19" viewBox="0 0 14 19" fill="none" xmlns="http://www.w3.org/2000/svg">
<path d="M4.04839 9.5326C4.05038 9.70801 3.98261 9.87702 3.85998 10.0025C3.73735 10.1279 3.56992 10.1995 3.39451 10.2015L0.748968 10.2315C0.573558 10.2335 0.404542 10.1657 0.279102 10.0431C0.153661 9.92045 0.0820722 9.75301 0.0800829 9.5776C0.0780935 9.40219 0.145867 9.23318 0.268494 9.10774C0.391121 8.9823 0.558556 8.91071 0.733967 8.90872L3.3795 8.87872C3.55491 8.87673 3.72393 8.9445 3.84937 9.06713C3.97481 9.18975 4.0464 9.35719 4.04839 9.5326Z" fill="black"/>
<path fill-rule="evenodd" clip-rule="evenodd" d="M2.80559 16.6023C2.79829 15.9591 3.0468 15.3394 3.49643 14.8795C3.94606 14.4195 4.55999 14.157 5.20316 14.1497C5.84633 14.1424 6.46606 14.3909 6.92601 14.8406C7.38595 15.2902 7.64845 15.9041 7.65574 16.5473C7.66304 17.1905 7.41453 17.8102 6.9649 18.2701C6.51527 18.7301 5.90134 18.9926 5.25817 18.9999C4.615 19.0072 3.99527 18.7587 3.53532 18.309C3.07538 17.8594 2.81288 17.2455 2.80559 16.6023ZM5.21816 15.4725C4.92581 15.4758 4.64675 15.5951 4.44238 15.8042C4.238 16.0133 4.12504 16.295 4.12836 16.5873C4.13167 16.8797 4.25099 17.1587 4.46006 17.3631C4.66912 17.5675 4.95082 17.6804 5.24317 17.6771C5.53552 17.6738 5.81458 17.5545 6.01895 17.3454C6.22333 17.1364 6.33629 16.8547 6.33297 16.5623C6.32966 16.27 6.21034 15.9909 6.00127 15.7865C5.79221 15.5821 5.51051 15.4692 5.21816 15.4725ZM6.88684 7.07496C7.53001 7.06767 8.14974 7.31617 8.60969 7.7658C9.06964 8.21543 9.33213 8.82936 9.33942 9.47254C9.34672 10.1157 9.09822 10.7354 8.64858 11.1954C8.19895 11.6553 7.58502 11.9178 6.94185 11.9251C6.29868 11.9324 5.67895 11.6839 5.21901 11.2343C4.75906 10.7846 4.49656 10.1707 4.48927 9.52754C4.48198 8.88437 4.73048 8.26465 5.18011 7.8047C5.62974 7.34475 6.24367 7.08226 6.88684 7.07496ZM8.01666 9.48754C8.01334 9.19519 7.89402 8.91613 7.68496 8.71175C7.47589 8.50737 7.1942 8.39442 6.90185 8.39773C6.6095 8.40105 6.33044 8.52036 6.12606 8.72943C5.92168 8.9385 5.80872 9.22019 5.81204 9.51254C5.81536 9.80489 5.93467 10.0839 6.14374 10.2883C6.35281 10.4927 6.6345 10.6057 6.92685 10.6023C7.2192 10.599 7.49826 10.4797 7.70264 10.2706C7.90701 10.0616 8.01997 9.77989 8.01666 9.48754ZM8.57053 0.000191067C9.2137 -0.00710323 9.83342 0.241399 10.2934 0.691032C10.7533 1.14066 11.0158 1.75459 11.0231 2.39777C11.0304 3.04094 10.7819 3.66066 10.3323 4.12061C9.88263 4.58056 9.2687 4.84305 8.62553 4.85034C7.98236 4.85764 7.36264 4.60914 6.90269 4.1595C6.44274 3.70987 6.18025 3.09594 6.17295 2.45277C6.16566 1.8096 6.41416 1.18988 6.86379 0.729927C7.31343 0.269979 7.92736 0.00748536 8.57053 0.000191067ZM9.70034 2.41277C9.69702 2.12042 9.57771 1.84136 9.36864 1.63698C9.15957 1.4326 8.87788 1.31964 8.58553 1.32296C8.29318 1.32628 8.01412 1.44559 7.80974 1.65466C7.60536 1.86373 7.49241 2.14542 7.49572 2.43777C7.49904 2.73012 7.61835 3.00918 7.82742 3.21356C8.03649 3.41794 8.31818 3.53089 8.61053 3.52758C8.90288 3.52426 9.18194 3.40494 9.38632 3.19588C9.5907 2.98681 9.70365 2.70512 9.70034 2.41277Z" fill="black"/>
<path d="M5.07816 3.12674C5.25357 3.12475 5.42101 3.05316 5.54363 2.92772C5.66626 2.80228 5.73403 2.63326 5.73205 2.45785C5.73006 2.28244 5.65847 2.115 5.53303 1.99238C5.40759 1.86975 5.23857 1.80198 5.06316 1.80397L0.653929 1.85397C0.478519 1.85596 0.311083 1.92755 0.188456 2.05299C0.0658295 2.17843 -0.00194391 2.34745 4.54488e-05 2.52286C0.00203479 2.69827 0.073624 2.8657 0.199064 2.98833C0.324505 3.11096 0.493521 3.17873 0.668931 3.17674L5.07816 3.12674ZM8.09668 16.5424C8.09867 16.7178 8.17026 16.8852 8.2957 17.0079C8.42114 17.1305 8.59015 17.1983 8.76556 17.1963L13.1748 17.1463C13.3502 17.1443 13.5176 17.0727 13.6403 16.9472C13.7629 16.8218 13.8307 16.6528 13.8287 16.4774C13.8267 16.302 13.7551 16.1345 13.6297 16.0119C13.5042 15.8893 13.3352 15.8215 13.1598 15.8235L8.75056 15.8735C8.57515 15.8755 8.40772 15.9471 8.28509 16.0725C8.16246 16.198 8.09469 16.367 8.09668 16.5424ZM13.0948 10.0915C13.2702 10.0895 13.4376 10.0179 13.5603 9.89248C13.6829 9.76704 13.7507 9.59802 13.7487 9.42261C13.7467 9.2472 13.6751 9.07976 13.5497 8.95714C13.4242 8.83451 13.2552 8.76674 13.0798 8.76873L10.4342 8.79873C10.2588 8.80072 10.0914 8.87231 9.96877 8.99775C9.84615 9.12319 9.77837 9.2922 9.78036 9.46761C9.78235 9.64302 9.85394 9.81046 9.97938 9.93309C10.1048 10.0557 10.2738 10.1235 10.4492 10.1215L13.0948 10.0915ZM13.6687 2.36784C13.6706 2.54325 13.6029 2.71227 13.4802 2.83771C13.3576 2.96315 13.1902 3.03474 13.0148 3.03673L12.1329 3.04673C11.9575 3.04872 11.7885 2.98094 11.6631 2.85832C11.5376 2.73569 11.466 2.56825 11.464 2.39284C11.4621 2.21743 11.5298 2.04842 11.6525 1.92298C11.7751 1.79754 11.9425 1.72595 12.1179 1.72396L12.9998 1.71396C13.1752 1.71197 13.3442 1.77974 13.4696 1.90237C13.5951 2.02499 13.6667 2.19243 13.6687 2.36784ZM0.828949 17.2863C0.653539 17.2883 0.484523 17.2205 0.359083 17.0979C0.233642 16.9752 0.162053 16.8078 0.160064 16.6324C0.158075 16.457 0.225848 16.288 0.348475 16.1625C0.471102 16.0371 0.638538 15.9655 0.813948 15.9635L1.69579 15.9535C1.8712 15.9515 2.04022 16.0193 2.16566 16.1419C2.2911 16.2645 2.36269 16.432 2.36468 16.6074C2.36667 16.7828 2.2989 16.9518 2.17627 17.0773C2.05364 17.2027 1.88621 17.2743 1.7108 17.2763L0.828949 17.2863Z" fill="black"/>
</svg>
