<svg width="20" height="20" viewBox="0 0 20 20" fill="none" xmlns="http://www.w3.org/2000/svg">
<path d="M2.5 2.5L17.5 17.5" stroke="#9CA3AF" stroke-width="1.5" stroke-linecap="round" stroke-linejoin="round"/>
<path d="M8.82 8.82249C8.50727 9.13501 8.33149 9.55896 8.33133 10.0011C8.33117 10.4432 8.50665 10.8673 8.81917 11.18C9.13168 11.4927 9.55563 11.6685 9.99774 11.6687C10.4399 11.6688 10.8639 11.4933 11.1767 11.1808" stroke="#9CA3AF" stroke-width="1.5" stroke-linecap="round" stroke-linejoin="round"/>
<path d="M7.80251 4.47083C8.51702 4.26644 9.25683 4.16404 10 4.16667C13.3333 4.16667 16.1108 6.11083 18.3333 10C17.685 11.1342 16.99 12.1033 16.2475 12.9067M14.4642 14.4575C13.105 15.3742 11.6183 15.8333 10 15.8333C6.66667 15.8333 3.88917 13.8892 1.66667 10C2.80751 8.00417 4.09417 6.52083 5.52667 5.54917" stroke="#9CA3AF" stroke-width="1.5" stroke-linecap="round" stroke-linejoin="round"/>
</svg>
