<svg width="31" height="35" viewBox="0 0 31 35" fill="none" xmlns="http://www.w3.org/2000/svg">
<path d="M15.5 0C12.4344 0 9.43763 1.0207 6.88867 2.93303C4.3397 4.84536 2.35303 7.56342 1.17987 10.7435C0.0067159 13.9236 -0.300236 17.4229 0.297835 20.7988C0.895906 24.1748 2.37214 27.2758 4.53985 29.7097C6.70756 32.1437 9.4694 33.8012 12.4761 34.4727C15.4828 35.1442 18.5993 34.7996 21.4316 33.4823C24.2638 32.1651 26.6846 29.9345 28.3878 27.0725C30.0909 24.2105 31 20.8457 31 17.4036C31 15.1181 30.5991 12.855 29.8201 10.7435C29.0412 8.63201 27.8995 6.71345 26.4602 5.09738C25.0208 3.48131 23.3121 2.19938 21.4316 1.32477C19.5511 0.450156 17.5355 0 15.5 0ZM12.4 25.2352V9.57196L21.7 17.4036L12.4 25.2352Z" fill="#38B6FF"/>
</svg>
