<svg width="26" height="26" viewBox="0 0 26 26" fill="none" xmlns="http://www.w3.org/2000/svg">
<g clip-path="url(#clip0_16_811)">
<path d="M13 2.29354e-05C13.2663 -0.00599996 13.5312 0.0412486 13.779 0.138994C14.0268 0.23674 14.2526 0.383014 14.4432 0.569227C14.6337 0.755439 14.7851 0.977839 14.8885 1.22337C14.9919 1.4689 15.0451 1.7326 15.0452 1.99901C15.0453 2.26542 14.9921 2.52915 14.8889 2.77473C14.7856 3.02031 14.6343 3.24279 14.4439 3.4291C14.2535 3.61541 14.0277 3.76179 13.7799 3.85966C13.5322 3.95753 13.2673 4.00491 13.001 3.99902C12.4784 3.98747 11.9812 3.7718 11.6156 3.39818C11.2501 3.02457 11.0453 2.5227 11.0452 2.00001C11.0451 1.47732 11.2496 0.975352 11.6149 0.601555C11.9803 0.227757 12.4774 0.0118398 13 2.29354e-05ZM7.84399 1.25002C8.13699 1.26602 8.47799 1.40902 8.71899 1.81302C9.40699 2.96602 8.32699 3.66502 7.99999 3.84302C4.75599 5.62002 2.53099 9.04802 2.53099 13C2.53099 18.77 7.22999 23.469 13 23.469C18.77 23.469 23.469 18.77 23.469 13C23.469 11.674 23.204 10.416 22.75 9.25002C22.691 9.09902 22.134 8.07702 23.25 7.37502C24.014 6.89502 24.756 7.43902 24.906 7.78102C25.629 9.42587 26.0016 11.2033 26 13C26 20.18 20.18 26 13 26C5.81999 26 -5.72205e-06 20.18 -5.72205e-06 13C-5.72205e-06 7.88702 2.95599 3.46202 7.24999 1.34402C7.29499 1.32102 7.54999 1.23402 7.84399 1.25002ZM22.625 3.34402C22.939 3.65802 14.898 13.82 14.656 14.125C14.648 14.137 14.634 14.144 14.625 14.156L14.531 14.281C14.165 14.721 13.617 14.999 13 15C12.4698 14.9992 11.9616 14.7883 11.5867 14.4134C11.2118 14.0385 11.0008 13.5302 11 13C10.9996 12.7076 11.0639 12.4187 11.1882 12.1541C11.3125 11.8894 11.4937 11.6555 11.719 11.469C11.719 11.469 22.306 3.02502 22.625 3.34402Z" fill="white"/>
</g>
<defs>
<clipPath id="clip0_16_811">
<rect width="26" height="26" fill="white" transform="matrix(-1 0 0 1 26 0)"/>
</clipPath>
</defs>
</svg>
