<svg width="20" height="20" viewBox="0 0 20 20" fill="none" xmlns="http://www.w3.org/2000/svg">
<path d="M14.1667 9.16667H5.83333C4.91286 9.16667 4.16667 9.91286 4.16667 10.8333V15.8333C4.16667 16.7538 4.91286 17.5 5.83333 17.5H14.1667C15.0871 17.5 15.8333 16.7538 15.8333 15.8333V10.8333C15.8333 9.91286 15.0871 9.16667 14.1667 9.16667Z" stroke="#9CA3AF" stroke-width="1.5" stroke-linecap="round" stroke-linejoin="round"/>
<path d="M10 14.1667C10.4602 14.1667 10.8333 13.7936 10.8333 13.3333C10.8333 12.8731 10.4602 12.5 10 12.5C9.53976 12.5 9.16667 12.8731 9.16667 13.3333C9.16667 13.7936 9.53976 14.1667 10 14.1667Z" stroke="#9CA3AF" stroke-width="2" stroke-linecap="round" stroke-linejoin="round"/>
<path d="M6.66667 9.16667V5.83333C6.66667 4.94928 7.01786 4.10143 7.64298 3.47631C8.2681 2.85119 9.11595 2.5 10 2.5C10.8841 2.5 11.7319 2.85119 12.357 3.47631C12.9821 4.10143 13.3333 4.94928 13.3333 5.83333V9.16667" stroke="#9CA3AF" stroke-width="1.5" stroke-linecap="round" stroke-linejoin="round"/>
</svg>
