<svg width="20" height="19" viewBox="0 0 20 19" fill="none" xmlns="http://www.w3.org/2000/svg">
<path d="M20 11.7386C20 11.9461 19.922 12.1452 19.7831 12.2919C19.6441 12.4387 19.4557 12.5211 19.2593 12.5211H17.7779V14.0863C17.7779 14.2938 17.6998 14.4929 17.5609 14.6396C17.422 14.7864 17.2336 14.8688 17.0371 14.8688C16.8407 14.8688 16.6523 14.7864 16.5134 14.6396C16.3745 14.4929 16.2964 14.2938 16.2964 14.0863V12.5211H14.815C14.6185 12.5211 14.4301 12.4387 14.2912 12.2919C14.1523 12.1452 14.0743 11.9461 14.0743 11.7386C14.0743 11.531 14.1523 11.332 14.2912 11.1852C14.4301 11.0384 14.6185 10.956 14.815 10.956H16.2964V9.39085C16.2964 9.18329 16.3745 8.98424 16.5134 8.83748C16.6523 8.69072 16.8407 8.60827 17.0371 8.60827C17.2336 8.60827 17.422 8.69072 17.5609 8.83748C17.6998 8.98424 17.7779 9.18329 17.7779 9.39085V10.956H19.2593C19.4557 10.956 19.6441 11.0384 19.7831 11.1852C19.922 11.332 20 11.531 20 11.7386ZM2.22285 3.91285H3.70428V5.47799C3.70428 5.68554 3.78232 5.88459 3.92123 6.03135C4.06014 6.17811 4.24854 6.26056 4.44499 6.26056C4.64144 6.26056 4.82984 6.17811 4.96875 6.03135C5.10767 5.88459 5.18571 5.68554 5.18571 5.47799V3.91285H6.66713C6.86358 3.91285 7.05199 3.8304 7.1909 3.68364C7.32981 3.53688 7.40785 3.33783 7.40785 3.13028C7.40785 2.92273 7.32981 2.72368 7.1909 2.57692C7.05199 2.43016 6.86358 2.34771 6.66713 2.34771H5.18571V0.78257C5.18571 0.57502 5.10767 0.37597 4.96875 0.22921C4.82984 0.0824493 4.64144 0 4.44499 0C4.24854 0 4.06014 0.0824493 3.92123 0.22921C3.78232 0.37597 3.70428 0.57502 3.70428 0.78257V2.34771H2.22285C2.0264 2.34771 1.83799 2.43016 1.69908 2.57692C1.56017 2.72368 1.48213 2.92273 1.48213 3.13028C1.48213 3.33783 1.56017 3.53688 1.69908 3.68364C1.83799 3.8304 2.0264 3.91285 2.22285 3.91285ZM14.0743 15.6514H13.3336V14.8688C13.3336 14.6613 13.2555 14.4622 13.1166 14.3155C12.9777 14.1687 12.7893 14.0863 12.5929 14.0863C12.3964 14.0863 12.208 14.1687 12.0691 14.3155C11.9302 14.4622 11.8521 14.6613 11.8521 14.8688V15.6514H11.1114C10.915 15.6514 10.7266 15.7339 10.5877 15.8806C10.4487 16.0274 10.3707 16.2264 10.3707 16.434C10.3707 16.6415 10.4487 16.8406 10.5877 16.9873C10.7266 17.1341 10.915 17.2165 11.1114 17.2165H11.8521V17.9991C11.8521 18.2067 11.9302 18.4057 12.0691 18.5525C12.208 18.6992 12.3964 18.7817 12.5929 18.7817C12.7893 18.7817 12.9777 18.6992 13.1166 18.5525C13.2555 18.4057 13.3336 18.2067 13.3336 17.9991V17.2165H14.0743C14.2707 17.2165 14.4591 17.1341 14.598 16.9873C14.737 16.8406 14.815 16.6415 14.815 16.434C14.815 16.2264 14.737 16.0274 14.598 15.8806C14.4591 15.7339 14.2707 15.6514 14.0743 15.6514ZM17.3436 4.69542L4.44499 18.3229C4.1672 18.6162 3.79054 18.781 3.39781 18.781C3.00507 18.781 2.62841 18.6162 2.35062 18.3229L0.43402 16.3C0.296421 16.1546 0.187269 15.9821 0.112799 15.7922C0.0383295 15.6022 0 15.3987 0 15.1931C0 14.9875 0.0383295 14.784 0.112799 14.5941C0.187269 14.4042 0.296421 14.2316 0.43402 14.0863L13.3336 0.458782C13.4711 0.313407 13.6345 0.198088 13.8142 0.11941C13.994 0.040732 14.1866 0.000236583 14.3812 0.000236583C14.5758 0.000236583 14.7685 0.040732 14.9482 0.11941C15.128 0.198088 15.2913 0.313407 15.4289 0.458782L17.3436 2.48173C17.4812 2.62707 17.5904 2.79962 17.6648 2.98954C17.7393 3.17945 17.7776 3.38301 17.7776 3.58857C17.7776 3.79414 17.7393 3.9977 17.6648 4.18761C17.5904 4.37753 17.4812 4.55008 17.3436 4.69542ZM16.2964 3.58906L14.3808 1.56514L11.4179 4.69542L13.3336 6.71935L16.2964 3.58906Z" fill="#0679F8"/>
</svg>
