<svg width="28" height="27" viewBox="0 0 28 27" fill="none" xmlns="http://www.w3.org/2000/svg">
<path d="M1.04952 13.5001H2.46957M13.83 1.04965V2.43303M25.1904 13.5001H26.6105M4.74166 4.64645L5.7357 5.61482M22.9183 4.64645L21.9243 5.61482M10.5639 20.417H17.0961M9.56984 19.0336C8.37766 18.1626 7.49703 16.9482 7.0527 15.5625C6.60836 14.1768 6.62285 12.69 7.09409 11.3128C7.56534 9.93554 8.46947 8.73766 9.6784 7.88881C10.8873 7.03996 12.3398 6.58318 13.83 6.58318C15.3202 6.58318 16.7727 7.03996 17.9816 7.88881C19.1905 8.73766 20.0946 9.93554 20.5659 11.3128C21.0371 12.69 21.0516 14.1768 20.6073 15.5625C20.163 16.9482 19.2823 18.1626 18.0902 19.0336C17.5357 19.5683 17.1183 20.2226 16.8716 20.9436C16.6249 21.6646 16.5558 22.432 16.6701 23.1838C16.6701 23.9176 16.3709 24.6213 15.8383 25.1402C15.3056 25.6591 14.5832 25.9506 13.83 25.9506C13.0768 25.9506 12.3544 25.6591 11.8217 25.1402C11.2891 24.6213 10.9899 23.9176 10.9899 23.1838C11.1041 22.432 11.0351 21.6646 10.7884 20.9436C10.5417 20.2226 10.1243 19.5683 9.56984 19.0336Z" stroke="white" stroke-width="2.05301" stroke-linecap="round" stroke-linejoin="round"/>
</svg>
