<svg width="14" height="19" viewBox="0 0 14 19" fill="none" xmlns="http://www.w3.org/2000/svg">
<path d="M3.86921 9.10382C3.8711 9.27034 3.80676 9.43079 3.69035 9.54988C3.57393 9.66896 3.41498 9.73692 3.24846 9.73881L0.736998 9.76729C0.570477 9.76918 0.410026 9.70484 0.290943 9.58843C0.17186 9.47202 0.103899 9.31307 0.10201 9.14655C0.100122 8.98003 0.16446 8.81958 0.280873 8.70049C0.397285 8.58141 0.556235 8.51345 0.722756 8.51156L3.23422 8.48308C3.40074 8.48119 3.56119 8.54553 3.68028 8.66194C3.79936 8.77835 3.86732 8.9373 3.86921 9.10382Z" fill="black"/>
<path fill-rule="evenodd" clip-rule="evenodd" d="M2.68941 15.8153C2.68248 15.2047 2.91839 14.6164 3.34524 14.1797C3.77208 13.7431 4.3549 13.4939 4.96547 13.487C5.57605 13.48 6.16437 13.716 6.60101 14.1428C7.03765 14.5696 7.28684 15.1525 7.29376 15.763C7.30069 16.3736 7.06478 16.9619 6.63793 17.3986C6.21109 17.8352 5.62827 18.0844 5.01769 18.0913C4.40712 18.0982 3.8188 17.8623 3.38216 17.4355C2.94552 17.0086 2.69633 16.4258 2.68941 15.8153ZM4.97972 14.7427C4.70218 14.7458 4.43726 14.8591 4.24324 15.0576C4.04922 15.2561 3.94199 15.5235 3.94514 15.801C3.94829 16.0785 4.06156 16.3435 4.26003 16.5375C4.4585 16.7315 4.72592 16.8387 5.00345 16.8356C5.28099 16.8324 5.5459 16.7192 5.73992 16.5207C5.93394 16.3222 6.04118 16.0548 6.03803 15.7773C6.03488 15.4997 5.92161 15.2348 5.72314 15.0408C5.52467 14.8468 5.25725 14.7396 4.97972 14.7427ZM6.56383 6.77074C7.17441 6.76381 7.76273 6.99972 8.19936 7.42657C8.636 7.85341 8.88519 8.43623 8.89212 9.0468C8.89904 9.65738 8.66313 10.2457 8.23629 10.6823C7.80944 11.119 7.22662 11.3682 6.61605 11.3751C6.00547 11.382 5.41716 11.1461 4.98052 10.7193C4.54388 10.2924 4.29469 9.7096 4.28776 9.09902C4.28084 8.48845 4.51675 7.90013 4.94359 7.46349C5.37044 7.02685 5.95326 6.77766 6.56383 6.77074ZM7.63638 9.06104C7.63324 8.78351 7.51997 8.51859 7.3215 8.32457C7.12302 8.13055 6.85561 8.02332 6.57807 8.02647C6.30054 8.02962 6.03562 8.14288 5.8416 8.34136C5.64758 8.53983 5.54035 8.80725 5.5435 9.08478C5.54664 9.36232 5.65991 9.62723 5.85838 9.82125C6.05686 10.0153 6.32427 10.1225 6.60181 10.1194C6.87934 10.1162 7.14426 10.0029 7.33828 9.80447C7.5323 9.606 7.63953 9.33858 7.63638 9.06104ZM8.16219 0.0545027C8.77276 0.047578 9.36108 0.283487 9.79772 0.710333C10.2344 1.13718 10.4835 1.72 10.4905 2.33057C10.4974 2.94115 10.2615 3.52947 9.83464 3.9661C9.4078 4.40274 8.82498 4.65193 8.21441 4.65886C7.60383 4.66578 7.01551 4.42987 6.57887 4.00303C6.14223 3.57618 5.89304 2.99337 5.88612 2.38279C5.87919 1.77221 6.1151 1.1839 6.54195 0.747257C6.96879 0.310618 7.55161 0.0614273 8.16219 0.0545027ZM9.23474 2.34481C9.23159 2.06728 9.11832 1.80236 8.91985 1.60834C8.72138 1.41432 8.45396 1.30709 8.17643 1.31024C7.89889 1.31338 7.63398 1.42665 7.43996 1.62512C7.24594 1.8236 7.1387 2.09101 7.14185 2.36855C7.145 2.64608 7.25827 2.911 7.45674 3.10502C7.65521 3.29904 7.92263 3.40627 8.20016 3.40313C8.4777 3.39998 8.74262 3.28671 8.93664 3.08824C9.13066 2.88977 9.23789 2.62235 9.23474 2.34481Z" fill="black"/>
<path d="M4.84685 3.0226C5.01338 3.02071 5.17233 2.95275 5.28874 2.83367C5.40515 2.71458 5.46949 2.55413 5.4676 2.38761C5.46571 2.22109 5.39775 2.06214 5.27867 1.94573C5.15958 1.82932 4.99913 1.76498 4.83261 1.76687L0.646836 1.81434C0.480315 1.81623 0.321365 1.88419 0.204953 2.00327C0.0885401 2.12235 0.0242014 2.2828 0.0260899 2.44933C0.0279784 2.61585 0.0959396 2.7748 0.215023 2.89121C0.334106 3.00762 0.494557 3.07196 0.661077 3.07007L4.84685 3.0226ZM7.7124 15.7584C7.71429 15.9249 7.78225 16.0838 7.90133 16.2002C8.02042 16.3167 8.18087 16.381 8.34739 16.3791L12.5332 16.3316C12.6997 16.3298 12.8586 16.2618 12.975 16.1427C13.0915 16.0236 13.1558 15.8632 13.1539 15.6967C13.152 15.5301 13.0841 15.3712 12.965 15.2548C12.8459 15.1384 12.6854 15.074 12.5189 15.0759L8.33314 15.1234C8.16662 15.1253 8.00767 15.1932 7.89126 15.3123C7.77485 15.4314 7.71051 15.5918 7.7124 15.7584ZM12.4572 9.63439C12.6237 9.63251 12.7827 9.56454 12.8991 9.44546C13.0155 9.32638 13.0798 9.16593 13.078 8.99941C13.0761 8.83289 13.0081 8.67394 12.889 8.55752C12.7699 8.44111 12.6095 8.37677 12.443 8.37866L9.9315 8.40714C9.76498 8.40903 9.60603 8.47699 9.48962 8.59608C9.37321 8.71516 9.30887 8.87561 9.31076 9.04213C9.31264 9.20865 9.3806 9.3676 9.49969 9.48401C9.61877 9.60043 9.77922 9.66477 9.94574 9.66288L12.4572 9.63439ZM13.002 2.30216C13.0039 2.46868 12.9396 2.62914 12.8231 2.74822C12.7067 2.8673 12.5478 2.93526 12.3813 2.93715L11.5441 2.94664C11.3776 2.94853 11.2171 2.8842 11.098 2.76778C10.979 2.65137 10.911 2.49242 10.9091 2.3259C10.9072 2.15938 10.9716 1.99893 11.088 1.87984C11.2044 1.76076 11.3633 1.6928 11.5299 1.69091L12.367 1.68142C12.5335 1.67953 12.694 1.74387 12.8131 1.86028C12.9322 1.97669 13.0001 2.13564 13.002 2.30216ZM0.812986 16.4646C0.646466 16.4664 0.486015 16.4021 0.366932 16.2857C0.247849 16.1693 0.179887 16.0103 0.177999 15.8438C0.17611 15.6773 0.240449 15.5168 0.356862 15.3978C0.473274 15.2787 0.632224 15.2107 0.798745 15.2088L1.6359 15.1993C1.80242 15.1974 1.96287 15.2618 2.08195 15.3782C2.20104 15.4946 2.269 15.6536 2.27089 15.8201C2.27278 15.9866 2.20844 16.147 2.09202 16.2661C1.97561 16.3852 1.81666 16.4532 1.65014 16.4551L0.812986 16.4646Z" fill="black"/>
</svg>
