<svg width="15" height="22" viewBox="0 0 15 22" fill="none" xmlns="http://www.w3.org/2000/svg">
<path d="M2.14286 0C1.57454 0 1.02949 0.225765 0.627628 0.627628C0.225765 1.02949 0 1.57454 0 2.14286V18.2143C0 18.7826 0.225765 19.3277 0.627628 19.7295C1.02949 20.1314 1.57454 20.3571 2.14286 20.3571V21.4286H4.28571V20.3571H10.7143V21.4286H12.8571V20.3571C13.4255 20.3571 13.9705 20.1314 14.3724 19.7295C14.7742 19.3277 15 18.7826 15 18.2143V2.14286C15 1.57454 14.7742 1.02949 14.3724 0.627628C13.9705 0.225765 13.4255 0 12.8571 0H2.14286ZM3.21429 4.28571H5.35714V6.42857H3.21429V4.28571ZM2.14286 9.64286H12.8571V18.2143H2.14286V9.64286ZM3.21429 10.7143V13.9286H5.35714V10.7143H3.21429Z" fill="black"/>
</svg>
