<svg width="18" height="21" viewBox="0 0 18 21" fill="none" xmlns="http://www.w3.org/2000/svg">
<path d="M10.9376 0.880716C10.6965 0.603787 10.3987 0.381851 10.0644 0.22991C9.73018 0.0779695 9.36718 -0.000433344 9 1.80145e-06H3.85714C3.17516 1.80145e-06 2.5211 0.270919 2.03887 0.753156C1.55663 1.23539 1.28571 1.88945 1.28571 2.57143V2.79C1.68814 2.64857 2.12143 2.57143 2.57143 2.57143H10.3307C10.4194 1.95943 10.629 1.38729 10.9376 0.880716ZM10.332 3.85714H2.57143C1.88944 3.85714 1.23539 4.12806 0.753154 4.6103C0.270917 5.09254 0 5.74659 0 6.42857V14.1429C0 14.8248 0.270917 15.4789 0.753154 15.9611C1.23539 16.4434 1.88944 16.7143 2.57143 16.7143H10.2857C10.9677 16.7143 11.6218 16.4434 12.104 15.9611C12.5862 15.4789 12.8571 14.8248 12.8571 14.1429V11.5714C13.1981 11.5714 13.5252 11.436 13.7663 11.1949C14.0074 10.9537 14.1429 10.6267 14.1429 10.2857V9C14.1429 8.65901 14.0074 8.33198 13.7663 8.09087C13.5252 7.84975 13.1981 7.71429 12.8571 7.71429V7.281C12.1868 6.96246 11.6055 6.48323 11.165 5.88591C10.7244 5.28859 10.4383 4.59169 10.332 3.85714ZM2.57143 18C2.12143 18 1.68814 17.9229 1.28571 17.7814V18C1.28571 18.682 1.55663 19.336 2.03887 19.8183C2.5211 20.3005 3.17516 20.5714 3.85714 20.5714H9C9.68198 20.5714 10.336 20.3005 10.8183 19.8183C11.3005 19.336 11.5714 18.682 11.5714 18V17.7814C11.169 17.9229 10.7357 18 10.2857 18H2.57143ZM18 3.21429C18 2.36181 17.6614 1.54424 17.0586 0.941444C16.4558 0.338649 15.6382 1.80145e-06 14.7857 1.80145e-06C13.9332 1.80145e-06 13.1157 0.338649 12.5129 0.941444C11.9101 1.54424 11.5714 2.36181 11.5714 3.21429C11.5714 4.06677 11.9101 4.88434 12.5129 5.48713C13.1157 6.08993 13.9332 6.42857 14.7857 6.42857C15.6382 6.42857 16.4558 6.08993 17.0586 5.48713C17.6614 4.88434 18 4.06677 18 3.21429Z" fill="black"/>
</svg>
