<svg width="14" height="24" viewBox="0 0 14 24" fill="none" xmlns="http://www.w3.org/2000/svg">
<path d="M7 0C5.14348 0 3.36301 0.737498 2.05025 2.05025C0.737498 3.36301 0 5.14349 0 7V16.3333C0 18.1898 0.737498 19.9703 2.05025 21.2831C3.36301 22.5958 5.14348 23.3333 7 23.3333C8.85651 23.3333 10.637 22.5958 11.9497 21.2831C13.2625 19.9703 14 18.1898 14 16.3333V7C14 5.14349 13.2625 3.36301 11.9497 2.05025C10.637 0.737498 8.85651 0 7 0ZM2.33333 4.66667H4.66667V7H2.33333V4.66667ZM5.83333 4.66667H8.16667V7H5.83333V4.66667ZM9.33333 4.66667H11.6667V7H9.33333V4.66667ZM2.33333 8.16667H4.66667V10.5H2.33333V8.16667ZM5.83333 8.16667H8.16667V10.5H5.83333V8.16667ZM9.33333 8.16667H11.6667V10.5H9.33333V8.16667ZM2.33333 11.6667H4.66667V14H2.33333V11.6667ZM5.83333 11.6667H8.16667V14H5.83333V11.6667ZM9.33333 11.6667H11.6667V14H9.33333V11.6667ZM7 16.3333C7.61884 16.3333 8.21233 16.5792 8.64991 17.0168C9.0875 17.4543 9.33333 18.0478 9.33333 18.6667C9.33333 19.2855 9.0875 19.879 8.64991 20.3166C8.21233 20.7542 7.61884 21 7 21C6.38116 21 5.78767 20.7542 5.35008 20.3166C4.9125 19.879 4.66667 19.2855 4.66667 18.6667C4.66667 18.0478 4.9125 17.4543 5.35008 17.0168C5.78767 16.5792 6.38116 16.3333 7 16.3333Z" fill="black"/>
</svg>
