<svg width="14" height="21" viewBox="0 0 14 21" fill="none" xmlns="http://www.w3.org/2000/svg">
<mask id="mask0_1_3450" style="mask-type:luminance" maskUnits="userSpaceOnUse" x="0" y="-1" width="14" height="22">
<path d="M1.5 1.49976H12.5V18.5128H1.5V1.49976Z" fill="white" stroke="white" stroke-width="3"/>
</mask>
<g mask="url(#mask0_1_3450)">
<path d="M2.00143 18.5031H1.99991C1.71443 18.5031 1.5 18.2803 1.5 18.0119V16.475C2.01589 17.2923 2.70876 17.9869 3.52471 18.5046L2.00143 18.5031ZM1.5 9.54243V2.00182C1.5 1.72347 1.72436 1.50049 1.99991 1.50049H4.55181C3.90259 2.13615 3.49993 3.02261 3.49993 4.003C3.49993 5.16843 4.06887 6.20114 4.94458 6.83763C3.508 7.31669 2.29425 8.28403 1.5 9.54243ZM12.5 9.54267C11.7058 8.28415 10.492 7.3167 9.05531 6.83762C9.931 6.20112 10.4999 5.16839 10.4999 4.003C10.4999 3.02264 10.0973 2.13616 9.44805 1.50049H11.9999C12.2756 1.50049 12.5 1.72363 12.5 2.00182V9.54267ZM10.4641 18.5116C11.2849 17.9931 11.9818 17.2959 12.5 16.4747V18.0119C12.5 18.2898 12.2761 18.5127 12.0008 18.5132C12.0005 18.5132 12.0002 18.5132 11.9999 18.5132L10.4641 18.5116ZM5.49998 13.0088C5.49998 12.1802 6.17426 11.5068 7 11.5068C7.82553 11.5068 8.49986 12.1802 8.49986 13.0088C8.49986 13.8374 7.82553 14.5107 7 14.5107C6.17426 14.5107 5.49998 13.8373 5.49998 13.0088Z" fill="#F77695" stroke="white" stroke-width="3"/>
</g>
</svg>
