<svg width="24" height="15" viewBox="0 0 24 15" fill="none" xmlns="http://www.w3.org/2000/svg">
<path d="M9.14282 14.8572H16V13.7144H9.14282V14.8572Z" fill="black"/>
<path d="M22.2856 11.7334H21.4285V10.8953H22.2856V11.7334ZM20.5715 11.7334H16.2856V10.8953H20.5715V11.7334ZM0 0V12.5714H24V0H0Z" fill="black"/>
<path d="M1.66674 7.35275C2.79964 7.35266 3.86507 7.79443 4.66634 8.59569C5.4676 9.39695 5.90937 10.4624 5.90928 11.5953C5.90928 11.6687 5.93859 11.7347 5.98707 11.7832C6.03547 11.8316 6.10149 11.8609 6.1749 11.8609C6.32173 11.8609 6.4398 11.7429 6.4398 11.596C6.4398 10.3208 5.94379 9.12183 5.04199 8.22003C4.1402 7.31824 2.94127 6.82223 1.66601 6.82223C1.51918 6.82223 1.40111 6.9403 1.40111 7.08713C1.40029 7.23459 1.51918 7.35348 1.66674 7.35275Z" fill="black"/>
<path d="M4.83192 11.7537C4.88041 11.8022 4.94643 11.8315 5.01984 11.8315C5.16649 11.8315 5.28465 11.7134 5.28465 11.5667C5.28465 10.5923 4.90607 9.67657 4.21703 8.98753C3.52798 8.29849 2.61231 7.91991 1.63783 7.91991C1.49118 7.91991 1.37302 8.03807 1.37302 8.18472C1.37229 8.33228 1.49118 8.45117 1.63865 8.45034C3.35632 8.45117 4.75339 9.84824 4.75421 11.5659C4.75421 11.6393 4.78353 11.7053 4.83192 11.7537Z" fill="black"/>
<path d="M3.67675 11.7247C3.72515 11.7731 3.79126 11.8025 3.86458 11.8024C4.01068 11.8032 4.12948 11.6844 4.12948 11.5376C4.12948 10.864 3.86823 10.2315 3.39204 9.75532C2.91585 9.27913 2.28333 9.01789 1.60981 9.01789C1.46298 9.01789 1.34419 9.13668 1.34492 9.28278C1.3441 9.43025 1.46298 9.54914 1.61054 9.54841C2.14107 9.54914 2.64073 9.75532 3.01638 10.131C3.39204 10.5066 3.59822 11.0063 3.59895 11.5368C3.59895 11.6102 3.62827 11.6763 3.67675 11.7247Z" fill="black"/>
<path d="M1.5763 10.1204C1.42965 10.1204 1.31076 10.2393 1.31067 10.386C1.31076 10.5328 1.42956 10.6516 1.5763 10.6517C2.05039 10.6517 2.43774 11.039 2.43774 11.5131C2.43783 11.5864 2.46714 11.6525 2.51553 11.7008C2.56402 11.7493 2.63004 11.7786 2.70336 11.7787C2.8501 11.7786 2.96899 11.6598 2.96899 11.5131C2.96826 10.7448 2.3446 10.1211 1.5763 10.1204Z" fill="black"/>
</svg>
