<svg width="28" height="28" viewBox="0 0 28 28" fill="none" xmlns="http://www.w3.org/2000/svg">
<path d="M1.30603 13.8616H2.69492M13.806 1.68433V3.03735M24.9171 13.8616H26.306M4.91714 5.20219L5.88936 6.14931M22.6949 5.20219L21.7227 6.14931M10.6116 20.6267H17.0005M9.63936 19.2737C8.47335 18.4217 7.61205 17.234 7.17746 15.8787C6.74288 14.5234 6.75704 13.0693 7.21795 11.7222C7.67886 10.3752 8.56314 9.20362 9.74554 8.3734C10.9279 7.54318 12.3485 7.09643 13.806 7.09643C15.2635 7.09643 16.6841 7.54318 17.8665 8.3734C19.0489 9.20362 19.9332 10.3752 20.3941 11.7222C20.855 13.0693 20.8692 14.5234 20.4346 15.8787C20 17.234 19.1387 18.4217 17.9727 19.2737C17.4304 19.7966 17.0221 20.4365 16.7809 21.1417C16.5396 21.8468 16.4721 22.5974 16.5838 23.3327C16.5838 24.0504 16.2911 24.7387 15.7702 25.2462C15.2493 25.7537 14.5427 26.0388 13.806 26.0388C13.0693 26.0388 12.3628 25.7537 11.8418 25.2462C11.3209 24.7387 11.0283 24.0504 11.0283 23.3327C11.14 22.5974 11.0725 21.8468 10.8312 21.1417C10.5899 20.4365 10.1816 19.7966 9.63936 19.2737Z" stroke="white" stroke-width="2.05301" stroke-linecap="round" stroke-linejoin="round"/>
</svg>
